<svg xmlns="http://www.w3.org/2000/svg" xmlns:xlink="http://www.w3.org/1999/xlink" version="1.1" width="346pt" height="157.5pt" viewBox="0 0 346 157.5">
<defs>
<clipPath id="clip_0">
<path transform="matrix(.75,0,0,.75,0,0)" d="M0 0H461.33335V210H0Z"/>
</clipPath>
<clipPath id="clip_1">
<path transform="matrix(.75,0,0,.75,0,0)" d="M0 0H461.33335V210H0Z"/>
</clipPath>
<clipPath id="clip_2">
<path transform="matrix(.75,0,0,.75,0,0)" d="M0 0H460V208.66667H0Z"/>
</clipPath>
</defs>
<g clip-path="url(#clip_0)">
<g clip-path="url(#clip_1)">
<path transform="matrix(.75,0,0,.75,0,0)" stroke-width="1" stroke-linecap="butt" stroke-miterlimit="4" stroke-linejoin="miter" fill="none" stroke="#000000" d="M26.33 97.33H58.33 84.33"/>
<path transform="matrix(-.75,0,0,-.75,64.75,73)" stroke-width="1" stroke-linecap="butt" stroke-miterlimit="4" stroke-linejoin="miter" fill="none" stroke="#000000" d="M10.93-3.29C6.95-1.396667 3.306667-.3 0 0 3.306667 .3 6.95 1.396667 10.93 3.29"/>
<path transform="matrix(.75,0,0,.75,0,0)" stroke-width="1" stroke-linecap="butt" stroke-miterlimit="4" stroke-linejoin="miter" fill="none" stroke="#000000" d="M86.33 97.33C86.33 91.96 90.69 87.61 96.06 87.61 101.42 87.61 105.78 91.96 105.78 97.33 105.78 102.7 101.42 107.06 96.06 107.06 90.69 107.06 86.33 102.7 86.33 97.33Z"/>
<path transform="matrix(.75,0,0,.75,0,0)" stroke-width="1" stroke-linecap="butt" stroke-miterlimit="4" stroke-linejoin="miter" fill="none" stroke="#000000" d="M105.78 97.33H158.44"/>
<path transform="matrix(-.75,0,0,-.75,120.33334,73)" stroke-width="1" stroke-linecap="butt" stroke-miterlimit="4" stroke-linejoin="miter" fill="none" stroke="#000000" d="M10.93-3.29C6.95-1.396667 3.306667-.3 0 0 3.306667 .3 6.95 1.396667 10.93 3.29"/>
<path transform="matrix(.75,0,0,.75,0,0)" stroke-width="1" stroke-linecap="butt" stroke-miterlimit="4" stroke-linejoin="miter" fill="none" stroke="#000000" d="M105.78 134H158.44"/>
<path transform="matrix(-.75,0,0,-.75,120.33334,100.5)" stroke-width="1" stroke-linecap="butt" stroke-miterlimit="4" stroke-linejoin="miter" fill="none" stroke="#000000" d="M10.93-3.29C6.95-1.396667 3.306667-.3 0 0 3.306667 .3 6.95 1.396667 10.93 3.29"/>
<path transform="matrix(.75,0,0,.75,0,0)" stroke-width="1" stroke-linecap="butt" stroke-miterlimit="4" stroke-linejoin="miter" fill="none" stroke="#4a4a4a" d="M59.11 60.44C63.11 31.11 51.78 15.78 117.78 15.11"/>
<path transform="matrix(.75,0,0,.75,0,0)" stroke-width="1" stroke-linecap="butt" stroke-miterlimit="4" stroke-linejoin="miter" fill="none" stroke="#000000" d="M52.64 60.44H117.31M59.11 2.24V66.91"/>
<path transform="matrix(.75,0,0,.75,0,0)" stroke-width="1" stroke-linecap="butt" stroke-miterlimit="4" stroke-linejoin="miter" fill="none" stroke="#000000" d="M110.31 55.44 117.31 60.44 110.31 65.44"/>
<path transform="matrix(.75,0,0,.75,0,0)" stroke-width="1" stroke-linecap="butt" stroke-miterlimit="4" stroke-linejoin="miter" fill="none" stroke="#000000" d="M54.11 9.24 59.11 2.24 64.11 9.24"/>
<path transform="matrix(.75,0,0,.75,0,0)" stroke-width="1" stroke-linecap="butt" stroke-dasharray="6,6" stroke-miterlimit="4" stroke-linejoin="miter" fill="none" stroke="#4a4a4a" d="M59.11 60.44C63.11 31.11 100.44 69.11 112.44 27.78"/>
<path transform="matrix(.75,0,0,.75,0,0)" stroke-width="1" stroke-linecap="butt" stroke-miterlimit="4" stroke-linejoin="miter" fill="none" stroke="#000000" d="M160.44 97.67C160.44 92.3 164.8 87.94 170.17 87.94 175.54 87.94 179.89 92.3 179.89 97.67 179.89 103.04 175.54 107.39 170.17 107.39 164.8 107.39 160.44 103.04 160.44 97.67Z"/>
<path transform="matrix(.75,0,0,.75,0,0)" stroke-width="1" stroke-linecap="butt" stroke-miterlimit="4" stroke-linejoin="miter" fill="none" stroke="#000000" d="M160.44 134.33C160.44 128.96 164.8 124.61 170.17 124.61 175.54 124.61 179.89 128.96 179.89 134.33 179.89 139.7 175.54 144.06 170.17 144.06 164.8 144.06 160.44 139.7 160.44 134.33Z"/>
<path transform="matrix(.75,0,0,.75,0,0)" stroke-width="1" stroke-linecap="butt" stroke-miterlimit="4" stroke-linejoin="miter" fill="none" stroke="#000000" d="M225.78 94C225.78 88.63 230.13 84.28 235.5 84.28 240.87 84.28 245.22 88.63 245.22 94 245.22 99.37 240.87 103.72 235.5 103.72 230.13 103.72 225.78 99.37 225.78 94Z"/>
<path transform="matrix(.75,0,0,.75,0,0)" stroke-width="1" stroke-linecap="butt" stroke-miterlimit="4" stroke-linejoin="miter" fill="none" stroke="#000000" d="M225.78 138.66C225.78 133.29 230.13 128.94 235.5 128.94 240.87 128.94 245.22 133.29 245.22 138.66 245.22 144.03 240.87 148.38 235.5 148.38 230.13 148.38 225.78 144.03 225.78 138.66Z"/>
<path transform="matrix(.75,0,0,.75,0,0)" stroke-width="1" stroke-linecap="butt" stroke-miterlimit="4" stroke-linejoin="miter" fill="none" stroke="#000000" d="M225.78 183.33C225.78 177.96 230.13 173.61 235.5 173.61 240.87 173.61 245.22 177.96 245.22 183.33 245.22 188.7 240.87 193.06 235.5 193.06 230.13 193.06 225.78 188.7 225.78 183.33Z"/>
<path transform="matrix(.75,0,0,.75,0,0)" stroke-width="1" stroke-linecap="butt" stroke-miterlimit="4" stroke-linejoin="miter" fill="none" stroke="#000000" d="M225.78 49.33C225.78 43.96 230.13 39.61 235.5 39.61 240.87 39.61 245.22 43.96 245.22 49.33 245.22 54.7 240.87 59.06 235.5 59.06 230.13 59.06 225.78 54.7 225.78 49.33Z"/>
<path transform="matrix(.75,0,0,.75,0,0)" stroke-width="1" stroke-linecap="butt" stroke-miterlimit="4" stroke-linejoin="miter" fill="none" stroke="#000000" d="M291.11 98C291.11 92.63 295.46 88.28 300.83 88.28 306.2 88.28 310.56 92.63 310.56 98 310.56 103.37 306.2 107.72 300.83 107.72 295.46 107.72 291.11 103.37 291.11 98Z"/>
<path transform="matrix(.75,0,0,.75,0,0)" stroke-width="1" stroke-linecap="butt" stroke-miterlimit="4" stroke-linejoin="miter" fill="none" stroke="#000000" d="M291.11 134.67C291.11 129.3 295.46 124.94 300.83 124.94 306.2 124.94 310.56 129.3 310.56 134.67 310.56 140.04 306.2 144.39 300.83 144.39 295.46 144.39 291.11 140.04 291.11 134.67Z"/>
<path transform="matrix(.75,0,0,.75,0,0)" stroke-width="1" stroke-linecap="butt" stroke-dasharray="6,6" stroke-miterlimit="4" stroke-linejoin="miter" fill="none" stroke="#4a4a4a" d="M179.89 97.67 225.78 49.33"/>
<path transform="matrix(.75,0,0,.75,0,0)" stroke-width="1" stroke-linecap="butt" stroke-dasharray="6,6" stroke-miterlimit="4" stroke-linejoin="miter" fill="none" stroke="#4a4a4a" d="M179.89 97.67 225.78 94"/>
<path transform="matrix(.75,0,0,.75,0,0)" stroke-width="1" stroke-linecap="butt" stroke-dasharray="6,6" stroke-miterlimit="4" stroke-linejoin="miter" fill="none" stroke="#4a4a4a" d="M179.89 97.67 225.78 138.66"/>
<path transform="matrix(.75,0,0,.75,0,0)" stroke-width="1" stroke-linecap="butt" stroke-dasharray="6,6" stroke-miterlimit="4" stroke-linejoin="miter" fill="none" stroke="#4a4a4a" d="M179.89 97.67 225.78 183.33"/>
<path transform="matrix(.75,0,0,.75,0,0)" stroke-width="1" stroke-linecap="butt" stroke-dasharray="6,6" stroke-miterlimit="4" stroke-linejoin="miter" fill="none" stroke="#4a4a4a" d="M179.89 134.33 225.78 49.33"/>
<path transform="matrix(.75,0,0,.75,0,0)" stroke-width="1" stroke-linecap="butt" stroke-dasharray="6,6" stroke-miterlimit="4" stroke-linejoin="miter" fill="none" stroke="#4a4a4a" d="M179.89 134.33 225.78 94"/>
<path transform="matrix(.75,0,0,.75,0,0)" stroke-width="1" stroke-linecap="butt" stroke-dasharray="6,6" stroke-miterlimit="4" stroke-linejoin="miter" fill="none" stroke="#4a4a4a" d="M183.11 131.78 225.78 138.66"/>
<path transform="matrix(.75,0,0,.75,0,0)" stroke-width="1" stroke-linecap="butt" stroke-dasharray="6,6" stroke-miterlimit="4" stroke-linejoin="miter" fill="none" stroke="#4a4a4a" d="M179.89 134.33 225.78 183.33"/>
<path transform="matrix(.75,0,0,.75,0,0)" stroke-width="1" stroke-linecap="butt" stroke-dasharray="6,6" stroke-miterlimit="4" stroke-linejoin="miter" fill="none" stroke="#4a4a4a" d="M245.22 94 291.11 97.67"/>
<path transform="matrix(.75,0,0,.75,0,0)" stroke-width="1" stroke-linecap="butt" stroke-dasharray="6,6" stroke-miterlimit="4" stroke-linejoin="miter" fill="none" stroke="#4a4a4a" d="M245.22 49.33 291.11 97.67"/>
<path transform="matrix(.75,0,0,.75,0,0)" stroke-width="1" stroke-linecap="butt" stroke-dasharray="6,6" stroke-miterlimit="4" stroke-linejoin="miter" fill="none" stroke="#4a4a4a" d="M245.22 94 291.11 134.33"/>
<path transform="matrix(.75,0,0,.75,0,0)" stroke-width="1" stroke-linecap="butt" stroke-dasharray="6,6" stroke-miterlimit="4" stroke-linejoin="miter" fill="none" stroke="#4a4a4a" d="M245.22 138.66 291.11 134.33"/>
<path transform="matrix(.75,0,0,.75,0,0)" stroke-width="1" stroke-linecap="butt" stroke-dasharray="6,6" stroke-miterlimit="4" stroke-linejoin="miter" fill="none" stroke="#4a4a4a" d="M245.22 183.33 291.11 134.33"/>
<path transform="matrix(.75,0,0,.75,0,0)" stroke-width="1" stroke-linecap="butt" stroke-dasharray="6,6" stroke-miterlimit="4" stroke-linejoin="miter" fill="none" stroke="#4a4a4a" d="M245.22 49.33 291.11 134.33"/>
<path transform="matrix(.75,0,0,.75,0,0)" stroke-width="1" stroke-linecap="butt" stroke-dasharray="6,6" stroke-miterlimit="4" stroke-linejoin="miter" fill="none" stroke="#4a4a4a" d="M245.22 138.66 291.11 97.67"/>
<path transform="matrix(.75,0,0,.75,0,0)" stroke-width="1" stroke-linecap="butt" stroke-dasharray="6,6" stroke-miterlimit="4" stroke-linejoin="miter" fill="none" stroke="#4a4a4a" d="M245.22 183.33 291.11 97.67"/>
<path transform="matrix(.75,0,0,.75,0,0)" stroke-width="1" stroke-linecap="butt" stroke-miterlimit="4" stroke-linejoin="miter" fill="none" stroke="#000000" d="M340.78 116.33C340.78 110.96 345.13 106.61 350.5 106.61 355.87 106.61 360.22 110.96 360.22 116.33 360.22 121.7 355.87 126.06 350.5 126.06 345.13 126.06 340.78 121.7 340.78 116.33Z"/>
<path transform="matrix(.75,0,0,.75,0,0)" stroke-width="1" stroke-linecap="butt" stroke-dasharray="6,6" stroke-miterlimit="4" stroke-linejoin="miter" fill="none" stroke="#4a4a4a" d="M309.22 101.33 340.78 116.33"/>
<path transform="matrix(.75,0,0,.75,0,0)" stroke-width="1" stroke-linecap="butt" stroke-dasharray="6,6" stroke-miterlimit="4" stroke-linejoin="miter" fill="none" stroke="#4a4a4a" d="M310.56 134.67 340.78 116.33"/>
<path transform="matrix(.75,0,0,.75,0,0)" stroke-width="1" stroke-linecap="butt" stroke-miterlimit="4" stroke-linejoin="miter" fill="none" stroke="#000000" d="M360.22 116.33H384.44"/>
<path transform="matrix(-.75,0,0,-.75,289.83335,87.25)" stroke-width="1" stroke-linecap="butt" stroke-miterlimit="4" stroke-linejoin="miter" fill="none" stroke="#000000" d="M10.93-3.29C6.95-1.396667 3.306667-.3 0 0 3.306667 .3 6.95 1.396667 10.93 3.29"/>
<path transform="matrix(.75,0,0,.75,0,0)" stroke-width="1" stroke-linecap="butt" stroke-miterlimit="4" stroke-linejoin="miter" fill="none" stroke="#4a4a4a" d="M371.11 55.55C387.78 19.55 397.78 18.89 413.78 55.55"/>
<path transform="matrix(.75,0,0,.75,0,0)" stroke-width="1" stroke-linecap="butt" stroke-miterlimit="4" stroke-linejoin="miter" fill="none" stroke="#000000" d="M364.64 55.55H429.31M371.11 7.13V60.93"/>
<path transform="matrix(.75,0,0,.75,0,0)" stroke-width="1" stroke-linecap="butt" stroke-miterlimit="4" stroke-linejoin="miter" fill="none" stroke="#000000" d="M422.31 50.55 429.31 55.55 422.31 60.55"/>
<path transform="matrix(.75,0,0,.75,0,0)" stroke-width="1" stroke-linecap="butt" stroke-miterlimit="4" stroke-linejoin="miter" fill="none" stroke="#000000" d="M366.11 14.13 371.11 7.13 376.11 14.13"/>
</g>
<g clip-path="url(#clip_2)">
<path transform="matrix(.012750001,0,0,-.012750001,6,75.65)" d="M415 40 409 107C358 67 304 53 253 53 170 53 114 125 114 223 114 301 151 397 257 397 309 397 343 389 398 353L410 418C351 452 317 461 256 461 117 461 36 340 36 222 36 98 127-11 252-11 306-11 361 3 415 40Z"/>
<path transform="matrix(.008925,0,0,-.008925,12.050018,78.00001)" d="M156 0V444H81V0ZM164 566V655H75V566Z"/>
<path transform="matrix(.012750001,0,0,-.012750001,89,83.96667)" d="M434-194V455H359V387C349 400 300 455 222 455 122 455 36 356 36 221 36 94 109-11 205-11 261-11 314 12 356 50V-194ZM359 140C359 122 359 120 349 107 323 67 286 50 250 50 174 50 114 128 114 221 114 323 186 391 259 391 328 391 359 320 359 280Z"/>
<path transform="matrix(.008925,0,0,-.008925,96.341678,78.92499)" d="M436 203C445 218 439 237 423 244L274 310 423 376C439 383 445 402 436 418 427 433 407 437 393 427L262 331 279 492C281 510 268 525 250 525 232 525 219 510 221 492L238 331 107 427C93 437 73 433 64 418 55 402 61 383 77 376L226 310 77 244C61 237 55 218 64 203 73 187 93 183 107 193L238 289 221 128C219 110 232 95 250 95 268 95 281 110 279 128L262 289 393 193C407 183 427 187 436 203Z"/>
<path transform="matrix(.008925,0,0,-.008925,95.975009,87.54999)" d="M156 0V444H81V0ZM164 566V655H75V566Z"/>
<path transform="matrix(.012750001,0,0,-.012750001,90.5,110.65001)" d="M434-194V455H359V387C349 400 300 455 222 455 122 455 36 356 36 221 36 94 109-11 205-11 261-11 314 12 356 50V-194ZM359 140C359 122 359 120 349 107 323 67 286 50 250 50 174 50 114 128 114 221 114 323 186 391 259 391 328 391 359 320 359 280Z"/>
<path transform="matrix(.008925,0,0,-.008925,97.475009,113)" d="M156 0V444H81V0ZM164 566V655H75V566Z"/>
<path transform="matrix(.012750001,0,0,-.012750001,293.275,80.15)" d="M515 457C475 616 357 716 234 716 89 716 76 586 83 558 86 544 99 523 129 523 162 523 176 553 170 576 161 611 130 611 114 611 140 685 209 691 238 691 311 691 394 639 427 510 436 471 443 420 441 339 416 401 361 457 283 457 222 457 161 441 102 363 40 280 56 187 64 156 80 94 152-22 292-22 530-22 551 314 515 457ZM432 303C450 231 443 6 289 6 179 6 153 109 150 119 144 146 134 286 160 346 185 403 226 435 288 435 397 435 427 323 432 303Z"/>
<path transform="matrix(.012750001,0,0,-.012750001,300.75004,80.15)" d="M434-194V455H359V387C349 400 300 455 222 455 122 455 36 356 36 221 36 94 109-11 205-11 261-11 314 12 356 50V-194ZM359 140C359 122 359 120 349 107 323 67 286 50 250 50 174 50 114 128 114 221 114 323 186 391 259 391 328 391 359 320 359 280Z"/>
<path transform="matrix(.008925,0,0,-.008925,307.725,82.50001)" d="M156 0V444H81V0ZM164 566V655H75V566Z"/>
<path transform="matrix(.012750001,0,0,-.012750001,295.91667,100.99166)" d="M515 457C475 616 357 716 234 716 89 716 76 586 83 558 86 544 99 523 129 523 162 523 176 553 170 576 161 611 130 611 114 611 140 685 209 691 238 691 311 691 394 639 427 510 436 471 443 420 441 339 416 401 361 457 283 457 222 457 161 441 102 363 40 280 56 187 64 156 80 94 152-22 292-22 530-22 551 314 515 457ZM432 303C450 231 443 6 289 6 179 6 153 109 150 119 144 146 134 286 160 346 185 403 226 435 288 435 397 435 427 323 432 303ZM918 27 902 86C876 65 844 53 812 53 775 53 761 83 761 136V386H902V444H761V571H692V444H605V386H689V119C689 59 703-11 772-11 842-11 893 14 918 27Z"/>
<path transform="matrix(.75,0,0,.75,0,0)" stroke-width=".666667" stroke-linecap="butt" stroke-miterlimit="4" stroke-linejoin="miter" fill="none" stroke="#000000" d="M391.03334 117.33332H414.16667"/>
<path transform="matrix(.0112499999,0,0,-.0112499999,142.00003,20.375)" d="M33 0C68 1 117 3 150 3 183 3 232 1 267 0V31C164 31 164 78 164 105V625C169 620 170 619 174 613L582 13C591 1 592 0 599 0 613 0 613 7 613 26V578C613 605 613 652 716 652V683C681 682 632 680 599 680 566 680 517 682 482 683V652C585 652 585 605 585 578V151L232 670C223 682 222 683 203 683H33V652H62C77 652 97 651 112 650 135 647 136 646 136 627V105C136 78 136 31 33 31ZM778 220C778 86 883-11 998-11 1120-11 1165 100 1165 119 1165 129 1157 131 1152 131 1143 131 1141 125 1139 117 1104 14 1014 14 1004 14 954 14 914 44 891 81 861 129 861 195 861 231H1140C1162 231 1165 231 1165 252 1165 351 1111 448 986 448 870 448 778 345 778 220ZM862 252C868 401 952 426 986 426 1089 426 1099 291 1099 252ZM1226 400C1304 400 1304 397 1304 308V158C1304 80 1304-11 1456-11 1512-11 1556 17 1585 79V-11L1729 0V31C1659 31 1651 38 1651 87V442L1504 431V400C1574 400 1582 393 1582 344V166C1582 79 1534 11 1461 11 1377 11 1373 58 1373 110V442L1226 431ZM1777 0C1816 1 1863 3 1891 3 1931 3 1978 3 2018 0V31H1997C1923 31 1921 42 1921 78V232C1921 331 1963 420 2039 420 2046 420 2048 420 2050 419 2047 418 2027 406 2027 380 2027 352 2048 337 2070 337 2088 337 2113 349 2113 381 2113 413 2082 442 2039 442 1966 442 1930 375 1916 332V442L1777 431V400C1847 400 1855 393 1855 344V76C1855 31 1844 31 1777 31ZM2182 95C2182 14 2279-11 2342-11 2408-11 2454 29 2473 76 2477 36 2504-6 2551-6 2572-6 2633 8 2633 89V145H2608V89C2608 31 2583 25 2572 25 2539 25 2535 70 2535 75V275C2535 317 2535 356 2499 393 2460 432 2410 448 2362 448 2280 448 2211 401 2211 335 2211 305 2231 288 2257 288 2285 288 2303 308 2303 334 2303 346 2298 379 2252 380 2279 415 2328 426 2360 426 2409 426 2466 387 2466 298V261C2415 258 2345 255 2282 225 2207 191 2182 139 2182 95ZM2259 96C2259 151 2301 234 2466 240V140C2466 45 2394 11 2349 11 2300 11 2259 46 2259 96ZM2673 0C2706 1 2759 3 2784 3 2809 3 2858 1 2895 0V31C2828 31 2817 31 2817 76V694L2673 683V652C2743 652 2751 645 2751 596V76C2751 31 2740 31 2673 31ZM3283 0C3318 1 3367 3 3400 3 3433 3 3482 1 3517 0V31C3414 31 3414 78 3414 105V625C3419 620 3420 619 3424 613L3832 13C3841 1 3842 0 3849 0 3863 0 3863 7 3863 26V578C3863 605 3863 652 3966 652V683C3931 682 3882 680 3849 680 3816 680 3767 682 3732 683V652C3835 652 3835 605 3835 578V151L3482 670C3473 682 3472 683 3453 683H3283V652H3312C3327 652 3347 651 3362 650 3385 647 3386 646 3386 627V105C3386 78 3386 31 3283 31ZM4028 220C4028 86 4133-11 4248-11 4370-11 4415 100 4415 119 4415 129 4407 131 4402 131 4393 131 4391 125 4389 117 4354 14 4264 14 4254 14 4204 14 4164 44 4141 81 4111 129 4111 195 4111 231H4390C4412 231 4415 231 4415 252 4415 351 4361 448 4236 448 4120 448 4028 345 4028 220ZM4112 252C4118 401 4202 426 4236 426 4339 426 4349 291 4349 252ZM4463 400H4548V124C4548 1 4641-11 4677-11 4748-11 4776 60 4776 124V181H4751V126C4751 52 4721 14 4684 14 4617 14 4617 105 4617 122V400H4760V431H4617V615H4592C4591 533 4561 426 4463 422ZM4822 400C4872 400 4884 397 4896 365L5022 11C5027-3 5030-11 5043-11 5056-11 5058-5 5063 9L5164 292 5266 8C5270-3 5273-11 5286-11 5299-11 5302-2 5306 8L5423 336C5441 386 5472 399 5507 400V431C5485 429 5456 428 5434 428 5405 428 5360 430 5341 431V400C5377 399 5399 381 5399 352 5399 346 5399 344 5394 331L5303 75 5204 354C5200 366 5199 368 5199 373 5199 400 5238 400 5258 400V431C5229 430 5178 428 5154 428 5124 428 5095 429 5065 431V400C5102 400 5118 398 5128 385 5133 379 5144 349 5151 330L5065 88 4970 355C4965 367 4965 369 4965 373 4965 400 5004 400 5024 400V431C4994 430 4938 428 4915 428 4911 428 4858 429 4822 431ZM5526 214C5526 85 5630-11 5747-11 5868-11 5969 87 5969 214 5969 342 5869 448 5748 448 5623 448 5526 339 5526 214ZM5609 222C5609 261 5609 315 5633 359 5660 405 5707 426 5747 426 5791 426 5834 404 5860 361 5886 318 5886 260 5886 222 5886 186 5886 132 5864 88 5842 43 5798 14 5748 14 5705 14 5661 35 5634 81 5609 125 5609 186 5609 222ZM6026 0C6065 1 6112 3 6140 3 6180 3 6227 3 6267 0V31H6246C6172 31 6170 42 6170 78V232C6170 331 6212 420 6288 420 6295 420 6297 420 6299 419 6296 418 6276 406 6276 380 6276 352 6297 337 6319 337 6337 337 6362 349 6362 381 6362 413 6331 442 6288 442 6215 442 6179 375 6165 332V442L6026 431V400C6096 400 6104 393 6104 344V76C6104 31 6093 31 6026 31ZM6417 0C6450 1 6497 3 6526 3 6556 3 6596 2 6636 0V31C6569 31 6558 31 6558 76V179L6622 234C6699 128 6741 72 6741 54 6741 35 6724 31 6705 31V0C6733 1 6792 3 6813 3 6842 3 6871 2 6900 0V31C6863 31 6841 31 6803 84L6676 263C6675 265 6670 271 6670 274 6670 278 6741 338 6751 346 6814 397 6856 399 6877 400V431C6848 428 6835 428 6807 428 6771 428 6709 430 6695 431V400C6714 399 6724 388 6724 375 6724 355 6710 343 6702 336L6561 214V694L6417 683V652C6487 652 6495 645 6495 596V76C6495 31 6484 31 6417 31Z"/>
<path transform="matrix(.0112499999,0,0,-.0112499999,269.00004,57.216669)" d="M33 652H57C134 652 136 641 136 605V228C136 87 252-22 388-22 503-22 593 71 610 185 613 205 613 214 613 254V574C613 607 613 652 716 652V683C680 682 632 680 598 680 563 680 515 682 479 683V652C582 652 582 605 582 578V231C582 89 485 9 390 9 343 9 225 34 225 224V605C225 641 227 652 304 652H328V683C293 680 219 680 181 680 143 680 68 680 33 683ZM778-163V-194C812-193 864-191 890-191 917-191 968-193 1003-194V-163C936-163 925-163 925-118V50 59C930 43 972-11 1048-11 1167-11 1271 87 1271 216 1271 343 1174 442 1062 442 984 442 942 398 922 376V442L778 431V400C849 400 856 394 856 350V-118C856-163 845-163 778-163ZM925 114V337C954 388 1003 417 1054 417 1127 417 1188 329 1188 216 1188 95 1118 11 1044 11 1004 11 966 31 939 72 925 93 925 94 925 114ZM1324 400H1409V124C1409 1 1502-11 1538-11 1609-11 1637 60 1637 124V181H1612V126C1612 52 1582 14 1545 14 1478 14 1478 105 1478 122V400H1621V431H1478V615H1453C1452 533 1422 426 1324 422ZM1735 95C1735 14 1832-11 1895-11 1961-11 2007 29 2026 76 2030 36 2057-6 2104-6 2125-6 2186 8 2186 89V145H2161V89C2161 31 2136 25 2125 25 2092 25 2088 70 2088 75V275C2088 317 2088 356 2052 393 2013 432 1963 448 1915 448 1833 448 1764 401 1764 335 1764 305 1784 288 1810 288 1838 288 1856 308 1856 334 1856 346 1851 379 1805 380 1832 415 1881 426 1913 426 1962 426 2019 387 2019 298V261C1968 258 1898 255 1835 225 1760 191 1735 139 1735 95ZM1812 96C1812 151 1854 234 2019 240V140C2019 45 1947 11 1902 11 1853 11 1812 46 1812 96ZM2221 0C2254 1 2301 3 2330 3 2360 3 2400 2 2440 0V31C2373 31 2362 31 2362 76V179L2426 234C2503 128 2545 72 2545 54 2545 35 2528 31 2509 31V0C2537 1 2596 3 2617 3 2646 3 2675 2 2704 0V31C2667 31 2645 31 2607 84L2480 263C2479 265 2474 271 2474 274 2474 278 2545 338 2555 346 2618 397 2660 399 2681 400V431C2652 428 2639 428 2611 428 2575 428 2513 430 2499 431V400C2518 399 2528 388 2528 375 2528 355 2514 343 2506 336L2365 214V694L2221 683V652C2291 652 2299 645 2299 596V76C2299 31 2288 31 2221 31ZM2720 220C2720 86 2825-11 2940-11 3062-11 3107 100 3107 119 3107 129 3099 131 3094 131 3085 131 3083 125 3081 117 3046 14 2956 14 2946 14 2896 14 2856 44 2833 81 2803 129 2803 195 2803 231H3082C3104 231 3107 231 3107 252 3107 351 3053 448 2928 448 2812 448 2720 345 2720 220ZM2804 252C2810 401 2894 426 2928 426 3031 426 3041 291 3041 252ZM3497 0C3536 1 3583 3 3611 3 3651 3 3698 3 3738 0V31H3717C3643 31 3641 42 3641 78V232C3641 331 3683 420 3759 420 3766 420 3768 420 3770 419 3767 418 3747 406 3747 380 3747 352 3768 337 3790 337 3808 337 3833 349 3833 381 3833 413 3802 442 3759 442 3686 442 3650 375 3636 332V442L3497 431V400C3567 400 3575 393 3575 344V76C3575 31 3564 31 3497 31ZM3902 95C3902 14 3999-11 4062-11 4128-11 4174 29 4193 76 4197 36 4224-6 4271-6 4292-6 4353 8 4353 89V145H4328V89C4328 31 4303 25 4292 25 4259 25 4255 70 4255 75V275C4255 317 4255 356 4219 393 4180 432 4130 448 4082 448 4000 448 3931 401 3931 335 3931 305 3951 288 3977 288 4005 288 4023 308 4023 334 4023 346 4018 379 3972 380 3999 415 4048 426 4080 426 4129 426 4186 387 4186 298V261C4135 258 4065 255 4002 225 3927 191 3902 139 3902 95ZM3979 96C3979 151 4021 234 4186 240V140C4186 45 4114 11 4069 11 4020 11 3979 46 3979 96ZM4379 400H4464V124C4464 1 4557-11 4593-11 4664-11 4692 60 4692 124V181H4667V126C4667 52 4637 14 4600 14 4533 14 4533 105 4533 122V400H4676V431H4533V615H4508C4507 533 4477 426 4379 422ZM4776 220C4776 86 4881-11 4996-11 5118-11 5163 100 5163 119 5163 129 5155 131 5150 131 5141 131 5139 125 5137 117 5102 14 5012 14 5002 14 4952 14 4912 44 4889 81 4859 129 4859 195 4859 231H5138C5160 231 5163 231 5163 252 5163 351 5109 448 4984 448 4868 448 4776 345 4776 220ZM4860 252C4866 401 4950 426 4984 426 5087 426 5097 291 5097 252Z"/>
<path transform="matrix(.0112499999,0,0,-.0112499999,37.5,60.874994)" d="M28 0C63 3 142 3 180 3 219 3 298 3 333 0V31H307C228 31 225 42 225 78V605C225 641 228 652 307 652H333V683C298 680 219 680 181 680 142 680 63 680 28 683V652H54C133 652 136 641 136 605V78C136 42 133 31 54 31H28ZM394 13C394-4 394-11 405-11 410-11 411-10 430 9 432 11 432 13 450 32 494-10 539-11 560-11 675-11 721 56 721 128 721 181 691 211 679 223 646 255 607 263 565 271 509 282 442 295 442 353 442 388 468 429 554 429 664 429 669 339 671 308 672 299 681 299 683 299 696 299 696 304 696 323V424C696 441 696 448 685 448 680 448 678 448 665 436 662 432 652 423 648 420 610 448 569 448 554 448 432 448 394 381 394 325 394 290 410 262 437 240 469 214 497 208 569 194 591 190 673 174 673 102 673 51 638 11 560 11 476 11 440 68 421 153 418 166 417 170 407 170 394 170 394 163 394 145ZM783 214C783 85 887-11 1004-11 1125-11 1226 87 1226 214 1226 342 1126 448 1005 448 880 448 783 339 783 214ZM866 222C866 261 866 315 890 359 917 405 964 426 1004 426 1048 426 1091 404 1117 361 1143 318 1143 260 1143 222 1143 186 1143 132 1121 88 1099 43 1055 14 1005 14 962 14 918 35 891 81 866 125 866 186 866 222ZM1274 400H1359V124C1359 1 1452-11 1488-11 1559-11 1587 60 1587 124V181H1562V126C1562 52 1532 14 1495 14 1428 14 1428 105 1428 122V400H1571V431H1428V615H1403C1402 533 1372 426 1274 422ZM1675 0C1710 1 1761 3 1788 3 1814 3 1866 1 1900 0V31C1833 31 1822 31 1822 76V260C1822 364 1893 420 1957 420 2020 420 2031 366 2031 309V76C2031 31 2020 31 1953 31V0C1988 1 2039 3 2066 3 2092 3 2144 1 2178 0V31C2126 31 2101 31 2100 61V252C2100 338 2100 369 2069 405 2055 422 2022 442 1964 442 1880 442 1836 382 1820 346H1819V694L1675 683V652C1745 652 1753 645 1753 596V76C1753 31 1742 31 1675 31ZM2226 220C2226 86 2331-11 2446-11 2568-11 2613 100 2613 119 2613 129 2605 131 2600 131 2591 131 2589 125 2587 117 2552 14 2462 14 2452 14 2402 14 2362 44 2339 81 2309 129 2309 195 2309 231H2588C2610 231 2613 231 2613 252 2613 351 2559 448 2434 448 2318 448 2226 345 2226 220ZM2310 252C2316 401 2400 426 2434 426 2537 426 2547 291 2547 252ZM2670 0C2709 1 2756 3 2784 3 2824 3 2871 3 2911 0V31H2890C2816 31 2814 42 2814 78V232C2814 331 2856 420 2932 420 2939 420 2941 420 2943 419 2940 418 2920 406 2920 380 2920 352 2941 337 2963 337 2981 337 3006 349 3006 381 3006 413 2975 442 2932 442 2859 442 2823 375 2809 332V442L2670 431V400C2740 400 2748 393 2748 344V76C2748 31 2737 31 2670 31ZM3065 0C3100 1 3151 3 3178 3 3204 3 3256 1 3290 0V31C3223 31 3212 31 3212 76V260C3212 364 3283 420 3347 420 3410 420 3421 366 3421 309V76C3421 31 3410 31 3343 31V0C3378 1 3429 3 3456 3 3482 3 3534 1 3568 0V31C3501 31 3490 31 3490 76V260C3490 364 3561 420 3625 420 3688 420 3699 366 3699 309V76C3699 31 3688 31 3621 31V0C3656 1 3707 3 3734 3 3760 3 3812 1 3846 0V31C3794 31 3769 31 3768 61V252C3768 338 3768 369 3737 405 3723 422 3690 442 3632 442 3548 442 3504 382 3487 344 3473 431 3399 442 3354 442 3281 442 3234 399 3206 337V442L3065 431V400C3135 400 3143 393 3143 344V76C3143 31 3132 31 3065 31ZM4231 0C4266 1 4317 3 4344 3 4370 3 4422 1 4456 0V31C4389 31 4378 31 4378 76V260C4378 364 4449 420 4513 420 4576 420 4587 366 4587 309V76C4587 31 4576 31 4509 31V0C4544 1 4595 3 4622 3 4648 3 4700 1 4734 0V31C4682 31 4657 31 4656 61V252C4656 338 4656 369 4625 405 4611 422 4578 442 4520 442 4447 442 4400 399 4372 337V442L4231 431V400C4301 400 4309 393 4309 344V76C4309 31 4298 31 4231 31ZM4782 214C4782 85 4886-11 5003-11 5124-11 5225 87 5225 214 5225 342 5125 448 5004 448 4879 448 4782 339 4782 214ZM4865 222C4865 261 4865 315 4889 359 4916 405 4963 426 5003 426 5047 426 5090 404 5116 361 5142 318 5142 260 5142 222 5142 186 5142 132 5120 88 5098 43 5054 14 5004 14 4961 14 4917 35 4890 81 4865 125 4865 186 4865 222ZM5316 215C5316 88 5414-11 5528-11 5592-11 5637 23 5662 55V-11L5809 0V31C5739 31 5731 38 5731 87V694L5587 683V652C5657 652 5665 645 5665 596V380C5636 416 5593 442 5539 442 5421 442 5316 344 5316 215ZM5399 214C5399 251 5401 311 5430 356 5451 387 5489 420 5543 420 5578 420 5620 405 5651 360 5662 343 5662 341 5662 323V118C5662 100 5662 98 5651 81 5621 33 5576 11 5533 11 5488 11 5452 37 5428 75 5402 116 5399 173 5399 214ZM5865 220C5865 86 5970-11 6085-11 6207-11 6252 100 6252 119 6252 129 6244 131 6239 131 6230 131 6228 125 6226 117 6191 14 6101 14 6091 14 6041 14 6001 44 5978 81 5948 129 5948 195 5948 231H6227C6249 231 6252 231 6252 252 6252 351 6198 448 6073 448 5957 448 5865 345 5865 220ZM5949 252C5955 401 6039 426 6073 426 6176 426 6186 291 6186 252Z"/>
</g>
</g>
</svg>
