<svg xmlns="http://www.w3.org/2000/svg" xmlns:xlink="http://www.w3.org/1999/xlink" x="0" y="0" width="411.3333435058594" height="281.29998779296875" style="
        width:411.3333435058594px;
        height:281.29998779296875px;
        background: #FFF;
        fill: none;
">
        
        
        <svg xmlns="http://www.w3.org/2000/svg" class="role-diagram-draw-area"><g class="shapes-region" style="stroke: black; fill: none;"><g class="composite-shape"><path class="real" d=" M109.19,70.01 C109.19,65.04 113.22,61.01 118.19,61.01 L182.96,61.01 C187.93,61.01 191.96,65.04 191.96,70.01 L191.96,97 C191.96,101.97 187.93,106 182.96,106 L118.19,106 C113.22,106 109.19,101.97 109.19,97 Z" style="stroke-width: 1px; stroke: rgb(0, 0, 0); fill: rgb(246, 200, 167); fill-opacity: 1;"/></g><g class="composite-shape"><path class="real" d=" M173.97,70.01 C173.97,65.04 177.99,61.01 182.96,61.01 L277.97,61.01 C282.94,61.01 286.97,65.04 286.97,70.01 L286.97,97 C286.97,101.97 282.94,106 277.97,106 L182.96,106 C177.99,106 173.97,101.97 173.97,97 Z" style="stroke-width: 1px; stroke: rgb(0, 0, 0); fill: rgb(74, 144, 226); fill-opacity: 0.42;"/></g><g class="grouped-shape"><g class="composite-shape"><path class="real" d=" M85.97,138.01 C85.97,133.04 89.99,129.01 94.96,129.01 L306.97,129.01 C311.94,129.01 315.97,133.04 315.97,138.01 L315.97,165 C315.97,169.97 311.94,174 306.97,174 L94.96,174 C89.99,174 85.97,169.97 85.97,165 Z" style="stroke-width: 1px; stroke: rgb(0, 0, 0); fill: rgb(246, 200, 167); fill-opacity: 1;"/></g></g><g class="grouped-shape"><g class="composite-shape"><path class="real" d=" M88.97,212.01 C88.97,207.04 92.99,203.01 97.96,203.01 L317.67,203.01 C322.64,203.01 326.66,207.04 326.66,212.01 L326.66,239 C326.66,243.97 322.64,248 317.67,248 L97.96,248 C92.99,248 88.97,243.97 88.97,239 Z" style="stroke-width: 1px; stroke: rgb(0, 0, 0); fill: rgb(252, 129, 188); fill-opacity: 0.48;"/></g></g><g class="arrow-line"><path class="connection real" stroke-dasharray="" d="  M86.97,147.88 C42.42,146.89 38.05,224.31 87.45,225.85" style="stroke: rgb(155, 155, 155); stroke-opacity: 1; stroke-width: 1px; fill: none; fill-opacity: 1;"/><g stroke="rgb(155,155,155)" stroke-opacity="1" transform="matrix(-1,1.2246467991473532e-16,-1.2246467991473532e-16,-1,88.9654541015625,225.87708872039923)" style="stroke: rgb(155, 155, 155); stroke-width: 1px;"><path d=" M10.93,-3.29 Q4.96,-0.45 0,0 Q4.96,0.45 10.93,3.29"/></g></g><g class="arrow-line"><path class="connection real" stroke-dasharray="" d="  M288,79 C351.36,74.05 367.68,133.79 320.45,157.3" style="stroke: rgb(155, 155, 155); stroke-opacity: 1; stroke-width: 1px; fill: none; fill-opacity: 1;"/><g stroke="rgb(155,155,155)" stroke-opacity="1" transform="matrix(0.9052724312891013,-0.424831525605056,0.424831525605056,0.9052724312891013,319,158)" style="stroke: rgb(155, 155, 155); stroke-width: 1px;"><path d=" M10.93,-3.29 Q4.96,-0.45 0,0 Q4.96,0.45 10.93,3.29"/></g></g><g/></g><g/><g/><g/></svg>
        <svg xmlns="http://www.w3.org/2000/svg" xmlns:xlink="http://www.w3.org/1999/xlink" width="410" height="279.9666748046875" style="width:410px;height:279.9666748046875px;font-family:LatinModern-Math, LatinModern, Asana-Math, Asana;background:#FFF;"><g><g><g><g><g><g><g><g transform="matrix(1,0,0,1,65.433349609375,31.266668701171874)"><path transform="matrix(0.020399999999999998,0,0,-0.020399999999999998,0,0)" d="M943 250C943 256 939 261 934 263C877 282 833 322 797 367C769 403 748 447 739 494C737 503 729 510 719 510C708 510 699 501 699 490C699 489 700 487 700 486C710 433 733 384 766 342C788 314 814 290 844 270L78 270C67 270 58 261 58 250C58 239 67 230 78 230L844 230C814 210 788 186 766 158C733 116 710 67 700 14C700 13 699 11 699 10C699 -1 708 -10 719 -10C729 -10 737 -3 739 6C748 53 769 97 797 133C833 178 877 218 934 237C939 239 943 244 943 250Z" stroke="rgb(0,0,0)" stroke-opacity="1" stroke-width="8" fill="rgb(0,0,0)" fill-opacity="1"></path></g></g></g><g><g transform="matrix(1,0,0,1,89.91668701171875,31.266668701171874)"><path transform="matrix(0.020399999999999998,0,0,-0.020399999999999998,0,0)" d="" stroke="rgb(0,0,0)" stroke-opacity="1" stroke-width="8" fill="rgb(0,0,0)" fill-opacity="1"></path></g></g><g><g><g><g><g transform="matrix(1,0,0,1,96.683349609375,31.533340454101562)"><path transform="matrix(0.018,0,0,-0.018,0,0)" d="M33 652L57 652C134 652 136 641 136 605L136 228C136 87 252 -22 388 -22C503 -22 593 71 610 185C613 205 613 214 613 254L613 574C613 607 613 652 716 652L716 683C680 682 632 680 598 680C563 680 515 682 479 683L479 652C582 652 582 605 582 578L582 231C582 89 485 9 390 9C343 9 225 34 225 224L225 605C225 641 227 652 304 652L328 652L328 683C293 680 219 680 181 680C143 680 68 680 33 683ZM782 0C817 1 868 3 895 3C921 3 973 1 1007 0L1007 31C940 31 929 31 929 76L929 260C929 364 1000 420 1064 420C1127 420 1138 366 1138 309L1138 76C1138 31 1127 31 1060 31L1060 0C1095 1 1146 3 1173 3C1199 3 1251 1 1285 0L1285 31C1233 31 1208 31 1207 61L1207 252C1207 338 1207 369 1176 405C1162 422 1129 442 1071 442C998 442 951 399 923 337L923 442L782 431L782 400C852 400 860 393 860 344L860 76C860 31 849 31 782 31ZM1380 616C1380 589 1402 563 1433 563C1461 563 1486 584 1486 616C1486 648 1461 669 1433 669C1402 669 1380 642 1380 616ZM1338 0C1370 1 1424 3 1448 3C1483 3 1518 1 1552 0L1552 31C1486 31 1482 36 1482 75L1482 442L1342 431L1342 400C1407 400 1416 394 1416 345L1416 76C1416 31 1405 31 1338 31ZM1601 400C1664 400 1668 394 1681 363L1825 8C1831 -6 1833 -11 1846 -11C1859 -11 1863 -2 1867 8L1998 333C2007 356 2024 399 2090 400L2090 431C2067 429 2038 428 2015 428C1991 428 1945 430 1928 431L1928 400C1965 399 1976 376 1976 357C1976 348 1974 344 1970 333L1868 78L1756 357C1750 370 1750 372 1750 374C1750 400 1789 400 1807 400L1807 431C1777 430 1721 428 1698 428C1671 428 1631 429 1601 431ZM2109 220C2109 86 2214 -11 2329 -11C2451 -11 2496 100 2496 119C2496 129 2488 131 2483 131C2474 131 2472 125 2470 117C2435 14 2345 14 2335 14C2285 14 2245 44 2222 81C2192 129 2192 195 2192 231L2471 231C2493 231 2496 231 2496 252C2496 351 2442 448 2317 448C2201 448 2109 345 2109 220ZM2193 252C2199 401 2283 426 2317 426C2420 426 2430 291 2430 252ZM2553 0C2592 1 2639 3 2667 3C2707 3 2754 3 2794 0L2794 31L2773 31C2699 31 2697 42 2697 78L2697 232C2697 331 2739 420 2815 420C2822 420 2824 420 2826 419C2823 418 2803 406 2803 380C2803 352 2824 337 2846 337C2864 337 2889 349 2889 381C2889 413 2858 442 2815 442C2742 442 2706 375 2692 332L2692 442L2553 431L2553 400C2623 400 2631 393 2631 344L2631 76C2631 31 2620 31 2553 31ZM2949 13C2949 -4 2949 -11 2960 -11C2965 -11 2966 -10 2985 9C2987 11 2987 13 3005 32C3049 -10 3094 -11 3115 -11C3230 -11 3276 56 3276 128C3276 181 3246 211 3234 223C3201 255 3162 263 3120 271C3064 282 2997 295 2997 353C2997 388 3023 429 3109 429C3219 429 3224 339 3226 308C3227 299 3236 299 3238 299C3251 299 3251 304 3251 323L3251 424C3251 441 3251 448 3240 448C3235 448 3233 448 3220 436C3217 432 3207 423 3203 420C3165 448 3124 448 3109 448C2987 448 2949 381 2949 325C2949 290 2965 262 2992 240C3024 214 3052 208 3124 194C3146 190 3228 174 3228 102C3228 51 3193 11 3115 11C3031 11 2995 68 2976 153C2973 166 2972 170 2962 170C2949 170 2949 163 2949 145ZM3352 95C3352 14 3449 -11 3512 -11C3578 -11 3624 29 3643 76C3647 36 3674 -6 3721 -6C3742 -6 3803 8 3803 89L3803 145L3778 145L3778 89C3778 31 3753 25 3742 25C3709 25 3705 70 3705 75L3705 275C3705 317 3705 356 3669 393C3630 432 3580 448 3532 448C3450 448 3381 401 3381 335C3381 305 3401 288 3427 288C3455 288 3473 308 3473 334C3473 346 3468 379 3422 380C3449 415 3498 426 3530 426C3579 426 3636 387 3636 298L3636 261C3585 258 3515 255 3452 225C3377 191 3352 139 3352 95ZM3429 96C3429 151 3471 234 3636 240L3636 140C3636 45 3564 11 3519 11C3470 11 3429 46 3429 96ZM3843 0C3876 1 3929 3 3954 3C3979 3 4028 1 4065 0L4065 31C3998 31 3987 31 3987 76L3987 694L3843 683L3843 652C3913 652 3921 645 3921 596L3921 76C3921 31 3910 31 3843 31ZM4455 0L4821 0C4989 0 5127 148 5127 336C5127 526 4992 683 4821 683L4455 683L4455 652L4479 652C4556 652 4558 641 4558 605L4558 78C4558 42 4556 31 4479 31L4455 31ZM4644 71L4644 612C4644 645 4646 652 4693 652L4793 652C4855 652 4924 630 4975 559C5018 500 5027 414 5027 336C5027 225 5008 165 4972 116C4952 89 4895 31 4794 31L4693 31C4646 31 4644 38 4644 71ZM5258 616C5258 589 5280 563 5311 563C5339 563 5364 584 5364 616C5364 648 5339 669 5311 669C5280 669 5258 642 5258 616ZM5216 0C5248 1 5302 3 5326 3C5361 3 5396 1 5430 0L5430 31C5364 31 5360 36 5360 75L5360 442L5220 431L5220 400C5285 400 5294 394 5294 345L5294 76C5294 31 5283 31 5216 31ZM5487 0C5541 3 5573 3 5595 3C5633 3 5672 2 5710 0L5710 31L5702 31C5636 31 5632 39 5632 77L5632 400L5842 400L5842 77C5842 39 5838 31 5773 31L5765 31L5765 0C5799 2 5832 3 5877 3C5920 3 5964 2 6007 0L6007 31L5995 31C5918 31 5910 38 5910 78L5910 400L6024 400L6024 430L5907 430L5907 541C5907 645 5961 682 5998 682C6009 682 6020 679 6031 676C6019 670 6002 659 6002 634C6002 608 6022 590 6045 590C6069 590 6088 608 6088 634C6088 665 6059 705 5998 705C5954 705 5920 688 5892 663C5877 679 5849 705 5778 705C5686 705 5565 657 5565 541L5565 430L5487 430L5487 400L5565 400L5565 77C5565 39 5560 31 5495 31L5487 31ZM5629 430L5629 540C5629 654 5727 682 5778 682C5824 682 5847 668 5854 664C5838 658 5818 646 5818 620C5818 604 5826 590 5845 579C5842 560 5842 537 5842 515L5842 430ZM6071 220C6071 86 6176 -11 6291 -11C6413 -11 6458 100 6458 119C6458 129 6450 131 6445 131C6436 131 6434 125 6432 117C6397 14 6307 14 6297 14C6247 14 6207 44 6184 81C6154 129 6154 195 6154 231L6433 231C6455 231 6458 231 6458 252C6458 351 6404 448 6279 448C6163 448 6071 345 6071 220ZM6155 252C6161 401 6245 426 6279 426C6382 426 6392 291 6392 252ZM6515 0C6554 1 6601 3 6629 3C6669 3 6716 3 6756 0L6756 31L6735 31C6661 31 6659 42 6659 78L6659 232C6659 331 6701 420 6777 420C6784 420 6786 420 6788 419C6785 418 6765 406 6765 380C6765 352 6786 337 6808 337C6826 337 6851 349 6851 381C6851 413 6820 442 6777 442C6704 442 6668 375 6654 332L6654 442L6515 431L6515 400C6585 400 6593 393 6593 344L6593 76C6593 31 6582 31 6515 31ZM6906 220C6906 86 7011 -11 7126 -11C7248 -11 7293 100 7293 119C7293 129 7285 131 7280 131C7271 131 7269 125 7267 117C7232 14 7142 14 7132 14C7082 14 7042 44 7019 81C6989 129 6989 195 6989 231L7268 231C7290 231 7293 231 7293 252C7293 351 7239 448 7114 448C6998 448 6906 345 6906 220ZM6990 252C6996 401 7080 426 7114 426C7217 426 7227 291 7227 252ZM7354 0C7389 1 7440 3 7467 3C7493 3 7545 1 7579 0L7579 31C7512 31 7501 31 7501 76L7501 260C7501 364 7572 420 7636 420C7699 420 7710 366 7710 309L7710 76C7710 31 7699 31 7632 31L7632 0C7667 1 7718 3 7745 3C7771 3 7823 1 7857 0L7857 31C7805 31 7780 31 7779 61L7779 252C7779 338 7779 369 7748 405C7734 422 7701 442 7643 442C7570 442 7523 399 7495 337L7495 442L7354 431L7354 400C7424 400 7432 393 7432 344L7432 76C7432 31 7421 31 7354 31ZM7868 400L7953 400L7953 124C7953 1 8046 -11 8082 -11C8153 -11 8181 60 8181 124L8181 181L8156 181L8156 126C8156 52 8126 14 8089 14C8022 14 8022 105 8022 122L8022 400L8165 400L8165 431L8022 431L8022 615L7997 615C7996 533 7966 426 7868 422ZM8312 616C8312 589 8334 563 8365 563C8393 563 8418 584 8418 616C8418 648 8393 669 8365 669C8334 669 8312 642 8312 616ZM8270 0C8302 1 8356 3 8380 3C8415 3 8450 1 8484 0L8484 31C8418 31 8414 36 8414 75L8414 442L8274 431L8274 400C8339 400 8348 394 8348 345L8348 76C8348 31 8337 31 8270 31ZM8556 95C8556 14 8653 -11 8716 -11C8782 -11 8828 29 8847 76C8851 36 8878 -6 8925 -6C8946 -6 9007 8 9007 89L9007 145L8982 145L8982 89C8982 31 8957 25 8946 25C8913 25 8909 70 8909 75L8909 275C8909 317 8909 356 8873 393C8834 432 8784 448 8736 448C8654 448 8585 401 8585 335C8585 305 8605 288 8631 288C8659 288 8677 308 8677 334C8677 346 8672 379 8626 380C8653 415 8702 426 8734 426C8783 426 8840 387 8840 298L8840 261C8789 258 8719 255 8656 225C8581 191 8556 139 8556 95ZM8633 96C8633 151 8675 234 8840 240L8840 140C8840 45 8768 11 8723 11C8674 11 8633 46 8633 96ZM9047 0C9080 1 9133 3 9158 3C9183 3 9232 1 9269 0L9269 31C9202 31 9191 31 9191 76L9191 694L9047 683L9047 652C9117 652 9125 645 9125 596L9125 76C9125 31 9114 31 9047 31ZM9657 0L10234 0L10276 258L10251 258C10226 104 10203 31 10031 31L9898 31C9851 31 9849 38 9849 71L9849 338L9939 338C10036 338 10047 306 10047 221L10072 221L10072 486L10047 486C10047 400 10036 369 9939 369L9849 369L9849 609C9849 642 9851 649 9898 649L10027 649C10180 649 10207 594 10223 455L10248 455L10220 680L9657 680L9657 649L9681 649C9758 649 9760 638 9760 602L9760 78C9760 42 9758 31 9681 31L9657 31ZM10338 215C10338 90 10435 -11 10551 -11C10621 -11 10662 32 10684 61L10684 -118C10684 -163 10673 -163 10606 -163L10606 -194C10640 -193 10692 -191 10718 -191C10745 -191 10796 -193 10831 -194L10831 -163C10764 -163 10753 -163 10753 -118L10753 442L10731 442L10693 351C10680 379 10639 442 10559 442C10443 442 10338 345 10338 215ZM10421 215C10421 334 10491 417 10565 417C10645 417 10687 330 10687 277L10687 136C10687 104 10669 76 10647 52C10634 38 10602 11 10555 11C10482 11 10421 100 10421 215ZM10863 400C10941 400 10941 397 10941 308L10941 158C10941 80 10941 -11 11093 -11C11149 -11 11193 17 11222 79L11222 -11L11366 0L11366 31C11296 31 11288 38 11288 87L11288 442L11141 431L11141 400C11211 400 11219 393 11219 344L11219 166C11219 79 11171 11 11098 11C11014 11 11010 58 11010 110L11010 442L10863 431ZM11428 95C11428 14 11525 -11 11588 -11C11654 -11 11700 29 11719 76C11723 36 11750 -6 11797 -6C11818 -6 11879 8 11879 89L11879 145L11854 145L11854 89C11854 31 11829 25 11818 25C11785 25 11781 70 11781 75L11781 275C11781 317 11781 356 11745 393C11706 432 11656 448 11608 448C11526 448 11457 401 11457 335C11457 305 11477 288 11503 288C11531 288 11549 308 11549 334C11549 346 11544 379 11498 380C11525 415 11574 426 11606 426C11655 426 11712 387 11712 298L11712 261C11661 258 11591 255 11528 225C11453 191 11428 139 11428 95ZM11505 96C11505 151 11547 234 11712 240L11712 140C11712 45 11640 11 11595 11C11546 11 11505 46 11505 96ZM11905 400L11990 400L11990 124C11990 1 12083 -11 12119 -11C12190 -11 12218 60 12218 124L12218 181L12193 181L12193 126C12193 52 12163 14 12126 14C12059 14 12059 105 12059 122L12059 400L12202 400L12202 431L12059 431L12059 615L12034 615C12033 533 12003 426 11905 422ZM12349 616C12349 589 12371 563 12402 563C12430 563 12455 584 12455 616C12455 648 12430 669 12402 669C12371 669 12349 642 12349 616ZM12307 0C12339 1 12393 3 12417 3C12452 3 12487 1 12521 0L12521 31C12455 31 12451 36 12451 75L12451 442L12311 431L12311 400C12376 400 12385 394 12385 345L12385 76C12385 31 12374 31 12307 31ZM12579 214C12579 85 12683 -11 12800 -11C12921 -11 13022 87 13022 214C13022 342 12922 448 12801 448C12676 448 12579 339 12579 214ZM12662 222C12662 261 12662 315 12686 359C12713 405 12760 426 12800 426C12844 426 12887 404 12913 361C12939 318 12939 260 12939 222C12939 186 12939 132 12917 88C12895 43 12851 14 12801 14C12758 14 12714 35 12687 81C12662 125 12662 186 12662 222ZM13083 0C13118 1 13169 3 13196 3C13222 3 13274 1 13308 0L13308 31C13241 31 13230 31 13230 76L13230 260C13230 364 13301 420 13365 420C13428 420 13439 366 13439 309L13439 76C13439 31 13428 31 13361 31L13361 0C13396 1 13447 3 13474 3C13500 3 13552 1 13586 0L13586 31C13534 31 13509 31 13508 61L13508 252C13508 338 13508 369 13477 405C13463 422 13430 442 13372 442C13299 442 13252 399 13224 337L13224 442L13083 431L13083 400C13153 400 13161 393 13161 344L13161 76C13161 31 13150 31 13083 31ZM13639 13C13639 -4 13639 -11 13650 -11C13655 -11 13656 -10 13675 9C13677 11 13677 13 13695 32C13739 -10 13784 -11 13805 -11C13920 -11 13966 56 13966 128C13966 181 13936 211 13924 223C13891 255 13852 263 13810 271C13754 282 13687 295 13687 353C13687 388 13713 429 13799 429C13909 429 13914 339 13916 308C13917 299 13926 299 13928 299C13941 299 13941 304 13941 323L13941 424C13941 441 13941 448 13930 448C13925 448 13923 448 13910 436C13907 432 13897 423 13893 420C13855 448 13814 448 13799 448C13677 448 13639 381 13639 325C13639 290 13655 262 13682 240C13714 214 13742 208 13814 194C13836 190 13918 174 13918 102C13918 51 13883 11 13805 11C13721 11 13685 68 13666 153C13663 166 13662 170 13652 170C13639 170 13639 163 13639 145Z" stroke="rgb(0,0,0)" stroke-opacity="1" stroke-width="8" fill="rgb(0,0,0)" fill-opacity="1"></path></g></g></g></g></g></g></g></g></g></g><g><g><g><g transform="matrix(1,0,0,1,103.5333251953125,54.16667175292969)"><path transform="matrix(0.012,0,0,-0.012,0,0)" d="M33 0C68 3 142 3 180 3C218 3 293 3 328 0L328 31L304 31C227 31 225 42 225 78L225 253L341 363L522 95C528 86 537 73 537 61C537 31 498 31 478 31L478 0C513 3 583 3 621 3C656 3 694 2 736 0L736 31C682 31 661 35 631 79L400 419L580 592C588 600 641 651 722 652L722 683C696 680 664 680 637 680C601 680 544 680 510 683L510 652C550 651 556 628 556 619C556 603 546 593 538 586L225 287L225 605C225 641 227 652 304 652L328 652L328 683C293 680 219 680 181 680C143 680 68 680 33 683L33 652L57 652C134 652 136 641 136 605L136 78C136 42 134 31 57 31L33 31ZM809 0C844 1 895 3 922 3C948 3 1000 1 1034 0L1034 31C967 31 956 31 956 76L956 260C956 364 1027 420 1091 420C1154 420 1165 366 1165 309L1165 76C1165 31 1154 31 1087 31L1087 0C1122 1 1173 3 1200 3C1226 3 1278 1 1312 0L1312 31C1260 31 1235 31 1234 61L1234 252C1234 338 1234 369 1203 405C1189 422 1156 442 1098 442C1025 442 978 399 950 337L950 442L809 431L809 400C879 400 887 393 887 344L887 76C887 31 876 31 809 31ZM1360 214C1360 85 1464 -11 1581 -11C1702 -11 1803 87 1803 214C1803 342 1703 448 1582 448C1457 448 1360 339 1360 214ZM1443 222C1443 261 1443 315 1467 359C1494 405 1541 426 1581 426C1625 426 1668 404 1694 361C1720 318 1720 260 1720 222C1720 186 1720 132 1698 88C1676 43 1632 14 1582 14C1539 14 1495 35 1468 81C1443 125 1443 186 1443 222ZM1822 400C1872 400 1884 397 1896 365L2022 11C2027 -3 2030 -11 2043 -11C2056 -11 2058 -5 2063 9L2164 292L2266 8C2270 -3 2273 -11 2286 -11C2299 -11 2302 -2 2306 8L2423 336C2441 386 2472 399 2507 400L2507 431C2485 429 2456 428 2434 428C2405 428 2360 430 2341 431L2341 400C2377 399 2399 381 2399 352C2399 346 2399 344 2394 331L2303 75L2204 354C2200 366 2199 368 2199 373C2199 400 2238 400 2258 400L2258 431C2229 430 2178 428 2154 428C2124 428 2095 429 2065 431L2065 400C2102 400 2118 398 2128 385C2133 379 2144 349 2151 330L2065 88L1970 355C1965 367 1965 369 1965 373C1965 400 2004 400 2024 400L2024 431C1994 430 1938 428 1915 428C1911 428 1858 429 1822 431ZM2558 0C2593 1 2644 3 2671 3C2697 3 2749 1 2783 0L2783 31C2716 31 2705 31 2705 76L2705 260C2705 364 2776 420 2840 420C2903 420 2914 366 2914 309L2914 76C2914 31 2903 31 2836 31L2836 0C2871 1 2922 3 2949 3C2975 3 3027 1 3061 0L3061 31C3009 31 2984 31 2983 61L2983 252C2983 338 2983 369 2952 405C2938 422 2905 442 2847 442C2774 442 2727 399 2699 337L2699 442L2558 431L2558 400C2628 400 2636 393 2636 344L2636 76C2636 31 2625 31 2558 31ZM3449 0C3484 3 3558 3 3596 3C3634 3 3709 3 3744 0L3744 31L3720 31C3643 31 3641 42 3641 78L3641 316L3810 316C3930 316 4038 397 4038 497C4038 595 3939 683 3802 683L3449 683L3449 652L3473 652C3550 652 3552 641 3552 605L3552 78C3552 42 3550 31 3473 31L3449 31ZM3638 342L3638 612C3638 645 3640 652 3687 652L3776 652C3935 652 3935 546 3935 497C3935 450 3935 342 3776 342ZM4126 0C4161 1 4212 3 4239 3C4265 3 4317 1 4351 0L4351 31C4284 31 4273 31 4273 76L4273 260C4273 364 4344 420 4408 420C4471 420 4482 366 4482 309L4482 76C4482 31 4471 31 4404 31L4404 0C4439 1 4490 3 4517 3C4543 3 4595 1 4629 0L4629 31C4577 31 4552 31 4551 61L4551 252C4551 338 4551 369 4520 405C4506 422 4473 442 4415 442C4331 442 4287 382 4271 346L4270 346L4270 694L4126 683L4126 652C4196 652 4204 645 4204 596L4204 76C4204 31 4193 31 4126 31ZM4640 -124C4640 -169 4682 -205 4732 -205C4795 -205 4836 -148 4860 -91L5036 336C5062 399 5113 400 5129 400L5129 431C5106 429 5077 428 5054 428C5036 428 4989 430 4967 431L4967 400C4998 399 5014 382 5014 357C5014 347 5013 345 5008 333L4907 87L4796 356C4792 366 4790 370 4790 374C4790 400 4827 400 4846 400L4846 431C4820 430 4754 428 4737 428C4710 428 4670 429 4640 431L4640 400C4688 400 4707 400 4721 365L4871 0C4866 -13 4852 -46 4846 -59C4824 -114 4796 -183 4732 -183C4727 -183 4704 -183 4685 -165C4716 -161 4724 -139 4724 -123C4724 -97 4705 -81 4682 -81C4662 -81 4640 -94 4640 -124ZM5181 13C5181 -4 5181 -11 5192 -11C5197 -11 5198 -10 5217 9C5219 11 5219 13 5237 32C5281 -10 5326 -11 5347 -11C5462 -11 5508 56 5508 128C5508 181 5478 211 5466 223C5433 255 5394 263 5352 271C5296 282 5229 295 5229 353C5229 388 5255 429 5341 429C5451 429 5456 339 5458 308C5459 299 5468 299 5470 299C5483 299 5483 304 5483 323L5483 424C5483 441 5483 448 5472 448C5467 448 5465 448 5452 436C5449 432 5439 423 5435 420C5397 448 5356 448 5341 448C5219 448 5181 381 5181 325C5181 290 5197 262 5224 240C5256 214 5284 208 5356 194C5378 190 5460 174 5460 102C5460 51 5425 11 5347 11C5263 11 5227 68 5208 153C5205 166 5204 170 5194 170C5181 170 5181 163 5181 145ZM5617 616C5617 589 5639 563 5670 563C5698 563 5723 584 5723 616C5723 648 5698 669 5670 669C5639 669 5617 642 5617 616ZM5575 0C5607 1 5661 3 5685 3C5720 3 5755 1 5789 0L5789 31C5723 31 5719 36 5719 75L5719 442L5579 431L5579 400C5644 400 5653 394 5653 345L5653 76C5653 31 5642 31 5575 31ZM5853 216C5853 88 5952 -11 6068 -11C6202 -11 6234 109 6234 119C6234 129 6224 129 6221 129C6212 129 6210 125 6208 119C6179 26 6114 14 6077 14C6024 14 5936 57 5936 218C5936 381 6018 423 6071 423C6080 423 6143 422 6178 386C6137 383 6131 353 6131 340C6131 314 6149 294 6177 294C6203 294 6223 311 6223 341C6223 409 6147 448 6070 448C5945 448 5853 340 5853 216ZM6296 13C6296 -4 6296 -11 6307 -11C6312 -11 6313 -10 6332 9C6334 11 6334 13 6352 32C6396 -10 6441 -11 6462 -11C6577 -11 6623 56 6623 128C6623 181 6593 211 6581 223C6548 255 6509 263 6467 271C6411 282 6344 295 6344 353C6344 388 6370 429 6456 429C6566 429 6571 339 6573 308C6574 299 6583 299 6585 299C6598 299 6598 304 6598 323L6598 424C6598 441 6598 448 6587 448C6582 448 6580 448 6567 436C6564 432 6554 423 6550 420C6512 448 6471 448 6456 448C6334 448 6296 381 6296 325C6296 290 6312 262 6339 240C6371 214 6399 208 6471 194C6493 190 6575 174 6575 102C6575 51 6540 11 6462 11C6378 11 6342 68 6323 153C6320 166 6319 170 6309 170C6296 170 6296 163 6296 145Z" stroke="rgb(208,128,94)" stroke-opacity="1" stroke-width="8" fill="rgb(208,128,94)" fill-opacity="1"></path></g></g></g></g><g><g><g><g><g><g><g transform="matrix(1,0,0,1,113.86669921875,76.83334045410156)"><path transform="matrix(0.015300000000000001,0,0,-0.015300000000000001,0,0)" d="M527 376C527 428 468 442 434 442C376 442 341 389 329 366C304 432 250 442 221 442C117 442 60 313 60 288C60 278 72 278 72 278C80 278 83 280 85 289C119 395 185 420 219 420C238 420 273 411 273 353C273 322 256 255 219 115C203 53 168 11 124 11C118 11 95 11 74 24C99 29 121 50 121 78C121 105 99 113 84 113C54 113 29 87 29 55C29 9 79 -11 123 -11C189 -11 225 59 228 65C240 28 276 -11 336 -11C439 -11 496 118 496 143C496 153 487 153 484 153C475 153 473 149 471 142C438 35 370 11 338 11C299 11 283 43 283 77C283 99 289 121 300 165L334 302C340 328 363 420 433 420C438 420 462 420 483 407C455 402 435 377 435 353C435 337 446 318 473 318C495 318 527 336 527 376Z" stroke="rgb(0,0,0)" stroke-opacity="1" stroke-width="8" fill="rgb(0,0,0)" fill-opacity="1"></path></g></g></g></g><g><g transform="matrix(1,0,0,1,117.0999755859375,76.98333435058593)"><path transform="matrix(0.015300000000000001,0,0,-0.015300000000000001,0,0)" d="M124 800C94 800 67 772 67 742C67 712 94 684 123 684C155 684 183 711 183 742C183 772 155 800 124 800Z" stroke="rgb(0,0,0)" stroke-opacity="1" stroke-width="8" fill="rgb(0,0,0)" fill-opacity="1"></path></g></g></g><g><g transform="matrix(1,0,0,1,127.20001220703125,76.83334045410156)"><path transform="matrix(0.015300000000000001,0,0,-0.015300000000000001,0,0)" d="M722 347C722 358 713 367 702 367L76 367C65 367 56 358 56 347C56 336 65 327 76 327L702 327C713 327 722 336 722 347ZM722 153C722 164 713 173 702 173L76 173C65 173 56 164 56 153C56 142 65 133 76 133L702 133C713 133 722 142 722 153Z" stroke="rgb(0,0,0)" stroke-opacity="1" stroke-width="8" fill="rgb(0,0,0)" fill-opacity="1"></path></g></g><g><g transform="matrix(1,0,0,1,143.683349609375,76.83334045410156)"><path transform="matrix(0.015300000000000001,0,0,-0.015300000000000001,0,0)" d="M602 383C602 383 601 393 590 393C580 393 580 390 575 372C557 309 524 233 477 174L477 236C477 393 384 442 310 442C173 442 41 299 41 158C41 65 101 -11 203 -11C266 -11 338 12 414 73C427 20 460 -11 505 -11C558 -11 589 44 589 60C589 67 583 70 577 70C570 70 567 67 564 60C546 11 508 11 508 11C477 11 477 89 477 113C477 134 477 136 487 148C581 266 602 383 602 383ZM410 99C322 22 245 11 205 11C145 11 115 56 115 120C115 169 141 277 173 328C220 401 274 420 309 420C408 420 408 289 408 211C408 174 408 116 410 99ZM1167 376C1167 428 1108 442 1074 442C1016 442 981 389 969 366C944 432 890 442 861 442C757 442 700 313 700 288C700 278 712 278 712 278C720 278 723 280 725 289C759 395 825 420 859 420C878 420 913 411 913 353C913 322 896 255 859 115C843 53 808 11 764 11C758 11 735 11 714 24C739 29 761 50 761 78C761 105 739 113 724 113C694 113 669 87 669 55C669 9 719 -11 763 -11C829 -11 865 59 868 65C880 28 916 -11 976 -11C1079 -11 1136 118 1136 143C1136 153 1127 153 1124 153C1115 153 1113 149 1111 142C1078 35 1010 11 978 11C939 11 923 43 923 77C923 99 929 121 940 165L974 302C980 328 1003 420 1073 420C1078 420 1102 420 1123 407C1095 402 1075 377 1075 353C1075 337 1086 318 1113 318C1135 318 1167 336 1167 376Z" stroke="rgb(0,0,0)" stroke-opacity="1" stroke-width="8" fill="rgb(0,0,0)" fill-opacity="1"></path></g></g><g><g transform="matrix(1,0,0,1,170.38330078125,76.83334045410156)"><path transform="matrix(0.015300000000000001,0,0,-0.015300000000000001,0,0)" d="M722 250C722 261 713 270 702 270L409 270L409 563C409 574 400 583 389 583C378 583 369 574 369 563L369 270L76 270C65 270 56 261 56 250C56 239 65 230 76 230L369 230L369 -63C369 -74 378 -83 389 -83C400 -83 409 -74 409 -63L409 230L702 230C713 230 722 239 722 250Z" stroke="rgb(0,0,0)" stroke-opacity="1" stroke-width="8" fill="rgb(0,0,0)" fill-opacity="1"></path></g></g><g><g transform="matrix(1,0,0,1,185.3499755859375,76.83334045410156)"><path transform="matrix(0.015300000000000001,0,0,-0.015300000000000001,0,0)" d="" stroke="rgb(0,0,0)" stroke-opacity="1" stroke-width="8" fill="rgb(0,0,0)" fill-opacity="1"></path></g></g><g><g transform="matrix(1,0,0,1,190.433349609375,76.83334045410156)"><path transform="matrix(0.015300000000000001,0,0,-0.015300000000000001,0,0)" d="M966 656C969 669 967 682 960 691C951 701 939 706 924 706C894 706 862 695 836 674C812 655 798 628 787 603C768 563 753 521 743 480L666 136L656 124L523 491C502 543 481 595 448 638C424 671 391 701 344 701C308 701 270 691 237 665C194 630 173 581 161 532L184 537C197 567 212 601 240 622C257 637 280 643 301 643C318 643 331 636 344 627C362 615 376 599 389 582L324 323C311 272 296 221 274 171C259 140 245 110 217 87C197 71 175 59 151 59C140 59 130 63 126 73C123 79 119 91 117 93C112 100 103 102 93 102C84 102 76 98 68 92C56 82 45 69 42 55C38 40 43 27 51 17C62 2 81 -4 101 -4C140 -4 179 16 212 44C258 83 283 123 304 169C319 200 352 308 374 378L418 535C505 381 564 183 613 -7L669 23L771 440C784 492 805 571 814 596C821 616 829 637 848 652C854 657 863 659 871 659C881 659 886 651 886 641C887 633 891 626 896 620C898 616 908 616 916 616L952 632C961 638 964 648 966 656ZM1973 656C1976 669 1974 682 1967 691C1958 701 1946 706 1931 706C1901 706 1869 695 1843 674C1819 655 1805 628 1794 603C1775 563 1760 521 1750 480L1673 136L1663 124L1530 491C1509 543 1488 595 1455 638C1431 671 1398 701 1351 701C1315 701 1277 691 1244 665C1201 630 1180 581 1168 532L1191 537C1204 567 1219 601 1247 622C1264 637 1287 643 1308 643C1325 643 1338 636 1351 627C1369 615 1383 599 1396 582L1331 323C1318 272 1303 221 1281 171C1266 140 1252 110 1224 87C1204 71 1182 59 1158 59C1147 59 1137 63 1133 73C1130 79 1126 91 1124 93C1119 100 1110 102 1100 102C1091 102 1083 98 1075 92C1063 82 1052 69 1049 55C1045 40 1050 27 1058 17C1069 2 1088 -4 1108 -4C1147 -4 1186 16 1219 44C1265 83 1290 123 1311 169C1326 200 1359 308 1381 378L1425 535C1512 381 1571 183 1620 -7L1676 23L1778 440C1791 492 1812 571 1821 596C1828 616 1836 637 1855 652C1861 657 1870 659 1878 659C1888 659 1893 651 1893 641C1894 633 1898 626 1903 620C1905 616 1915 616 1923 616L1959 632C1968 638 1971 648 1973 656Z" stroke="rgb(30,113,211)" stroke-opacity="1" stroke-width="8" fill="rgb(30,113,211)" fill-opacity="1"></path></g></g><g><g><g><g><g transform="matrix(1,0,0,1,221.699951171875,79.67667480468751)"><path transform="matrix(0.01071,0,0,-0.01071,0,0)" d="M419 0L419 31L387 31C297 31 294 42 294 79L294 640C294 664 294 666 271 666C209 602 121 602 89 602L89 571C109 571 168 571 220 597L220 79C220 43 217 31 127 31L95 31L95 0C130 3 217 3 257 3C297 3 384 3 419 0Z" stroke="rgb(30,113,211)" stroke-opacity="1" stroke-width="8" fill="rgb(30,113,211)" fill-opacity="1"></path></g></g></g></g></g><g><g transform="matrix(1,0,0,1,227.9666748046875,76.98333435058593)"><path transform="matrix(0.015300000000000001,0,0,-0.015300000000000001,0,0)" d="M332 -238C332 -235 330 -232 328 -230C224 -152 155 48 155 208L155 292C155 452 224 652 328 730C330 732 332 735 332 738C332 743 327 748 322 748C320 748 318 747 316 746C206 663 101 463 101 292L101 208C101 37 206 -163 316 -246C318 -247 320 -248 322 -248C327 -248 332 -243 332 -238Z" stroke="rgb(0,0,0)" stroke-opacity="1" stroke-width="8" fill="rgb(0,0,0)" fill-opacity="1"></path></g></g><g><g transform="matrix(1,0,0,1,233.9166259765625,76.83334045410156)"><path transform="matrix(0.015300000000000001,0,0,-0.015300000000000001,0,0)" d="M455 500C455 566 437 705 335 705C196 705 42 423 42 194C42 100 71 -11 162 -11C303 -11 455 276 455 500ZM389 562C389 513 381 462 357 363L148 363C165 427 185 507 225 578C252 627 289 683 334 683C383 683 389 619 389 562ZM348 331C337 285 316 200 278 128C243 60 205 11 162 11C129 11 108 40 108 133C108 175 114 233 140 331Z" stroke="rgb(0,0,0)" stroke-opacity="1" stroke-width="8" fill="rgb(0,0,0)" fill-opacity="1"></path></g></g><g><g transform="matrix(1,0,0,1,241.0999755859375,76.83334045410156)"><path transform="matrix(0.015300000000000001,0,0,-0.015300000000000001,0,0)" d="M203 1C203 67 178 106 139 106C106 106 86 81 86 53C86 26 106 0 139 0C151 0 164 4 174 13C177 15 179 16 179 16C179 16 181 15 181 1C181 -73 146 -133 113 -166C102 -177 102 -179 102 -182C102 -189 107 -193 112 -193C123 -193 203 -116 203 1Z" stroke="rgb(0,0,0)" stroke-opacity="1" stroke-width="8" fill="rgb(0,0,0)" fill-opacity="1"></path></g></g><g><g transform="matrix(1,0,0,1,248.4166259765625,76.83334045410156)"><path transform="matrix(0.015300000000000001,0,0,-0.015300000000000001,0,0)" d="M527 376C527 428 468 442 434 442C376 442 341 389 329 366C304 432 250 442 221 442C117 442 60 313 60 288C60 278 72 278 72 278C80 278 83 280 85 289C119 395 185 420 219 420C238 420 273 411 273 353C273 322 256 255 219 115C203 53 168 11 124 11C118 11 95 11 74 24C99 29 121 50 121 78C121 105 99 113 84 113C54 113 29 87 29 55C29 9 79 -11 123 -11C189 -11 225 59 228 65C240 28 276 -11 336 -11C439 -11 496 118 496 143C496 153 487 153 484 153C475 153 473 149 471 142C438 35 370 11 338 11C299 11 283 43 283 77C283 99 289 121 300 165L334 302C340 328 363 420 433 420C438 420 462 420 483 407C455 402 435 377 435 353C435 337 446 318 473 318C495 318 527 336 527 376Z" stroke="rgb(0,0,0)" stroke-opacity="1" stroke-width="8" fill="rgb(0,0,0)" fill-opacity="1"></path></g></g><g><g transform="matrix(1,0,0,1,257.1666259765625,76.83334045410156)"><path transform="matrix(0.015300000000000001,0,0,-0.015300000000000001,0,0)" d="M203 1C203 67 178 106 139 106C106 106 86 81 86 53C86 26 106 0 139 0C151 0 164 4 174 13C177 15 179 16 179 16C179 16 181 15 181 1C181 -73 146 -133 113 -166C102 -177 102 -179 102 -182C102 -189 107 -193 112 -193C123 -193 203 -116 203 1Z" stroke="rgb(0,0,0)" stroke-opacity="1" stroke-width="8" fill="rgb(0,0,0)" fill-opacity="1"></path></g></g><g><g transform="matrix(1,0,0,1,264.4833984375,76.83334045410156)"><path transform="matrix(0.015300000000000001,0,0,-0.015300000000000001,0,0)" d="M490 404C490 422 476 431 461 431C451 431 435 425 426 410C424 405 416 374 412 356L392 276L347 96C343 81 300 11 234 11C183 11 172 55 172 92C172 138 189 200 223 288C239 329 243 340 243 360C243 405 211 442 161 442C66 442 29 297 29 288C29 278 41 278 41 278C51 278 52 280 57 296C84 390 124 420 158 420C166 420 183 420 183 388C183 363 173 337 166 318C126 212 108 155 108 108C108 19 171 -11 230 -11C269 -11 303 6 331 34C318 -18 306 -67 266 -120C240 -154 202 -183 156 -183C142 -183 97 -180 80 -141C96 -141 109 -141 123 -129C133 -120 143 -107 143 -88C143 -57 116 -53 106 -53C83 -53 50 -69 50 -118C50 -168 94 -205 156 -205C259 -205 362 -114 390 -1L486 381C490 395 490 397 490 404Z" stroke="rgb(0,0,0)" stroke-opacity="1" stroke-width="8" fill="rgb(0,0,0)" fill-opacity="1"></path></g></g><g><g transform="matrix(1,0,0,1,271.9833984375,76.98333435058593)"><path transform="matrix(0.015300000000000001,0,0,-0.015300000000000001,0,0)" d="M288 208L288 292C288 463 183 663 73 746C71 747 69 748 67 748C62 748 57 743 57 738C57 735 59 732 61 730C165 652 234 452 234 292L234 208C234 48 165 -152 61 -230C59 -232 57 -235 57 -238C57 -243 62 -248 67 -248C69 -248 71 -247 73 -246C183 -163 288 37 288 208Z" stroke="rgb(0,0,0)" stroke-opacity="1" stroke-width="8" fill="rgb(0,0,0)" fill-opacity="1"></path></g></g></g><g><g><g><g><g><g transform="matrix(1,0,0,1,113.86669921875,96.96668701171875)"><path transform="matrix(0.015300000000000001,0,0,-0.015300000000000001,0,0)" d="M490 404C490 422 476 431 461 431C451 431 435 425 426 410C424 405 416 374 412 356L392 276L347 96C343 81 300 11 234 11C183 11 172 55 172 92C172 138 189 200 223 288C239 329 243 340 243 360C243 405 211 442 161 442C66 442 29 297 29 288C29 278 41 278 41 278C51 278 52 280 57 296C84 390 124 420 158 420C166 420 183 420 183 388C183 363 173 337 166 318C126 212 108 155 108 108C108 19 171 -11 230 -11C269 -11 303 6 331 34C318 -18 306 -67 266 -120C240 -154 202 -183 156 -183C142 -183 97 -180 80 -141C96 -141 109 -141 123 -129C133 -120 143 -107 143 -88C143 -57 116 -53 106 -53C83 -53 50 -69 50 -118C50 -168 94 -205 156 -205C259 -205 362 -114 390 -1L486 381C490 395 490 397 490 404Z" stroke="rgb(0,0,0)" stroke-opacity="1" stroke-width="8" fill="rgb(0,0,0)" fill-opacity="1"></path></g></g></g></g><g><g transform="matrix(1,0,0,1,116.4666748046875,97.116650390625)"><path transform="matrix(0.015300000000000001,0,0,-0.015300000000000001,0,0)" d="M124 800C94 800 67 772 67 742C67 712 94 684 123 684C155 684 183 711 183 742C183 772 155 800 124 800Z" stroke="rgb(0,0,0)" stroke-opacity="1" stroke-width="8" fill="rgb(0,0,0)" fill-opacity="1"></path></g></g></g><g><g transform="matrix(1,0,0,1,121.36669921875,96.96668701171875)"><path transform="matrix(0.015300000000000001,0,0,-0.015300000000000001,0,0)" d="" stroke="rgb(0,0,0)" stroke-opacity="1" stroke-width="8" fill="rgb(0,0,0)" fill-opacity="1"></path></g></g><g><g transform="matrix(1,0,0,1,131.0333251953125,96.96668701171875)"><path transform="matrix(0.015300000000000001,0,0,-0.015300000000000001,0,0)" d="M722 347C722 358 713 367 702 367L76 367C65 367 56 358 56 347C56 336 65 327 76 327L702 327C713 327 722 336 722 347ZM722 153C722 164 713 173 702 173L76 173C65 173 56 164 56 153C56 142 65 133 76 133L702 133C713 133 722 142 722 153Z" stroke="rgb(0,0,0)" stroke-opacity="1" stroke-width="8" fill="rgb(0,0,0)" fill-opacity="1"></path></g></g><g><g transform="matrix(1,0,0,1,147.51666259765625,96.96668701171875)"><path transform="matrix(0.015300000000000001,0,0,-0.015300000000000001,0,0)" d="M548 -1C548 2 546 4 543 8C533 19 527 34 520 54L316 623C295 681 241 694 194 694C189 694 176 694 176 683C176 675 185 673 185 673C218 667 225 661 250 593L347 321L71 47C59 35 53 29 53 16C53 -1 67 -13 83 -13C99 -13 108 -2 116 8L357 292C398 187 446 34 462 11C478 -11 488 -11 515 -11L537 -11C547 -10 548 -4 548 -1ZM1073 404C1073 422 1059 431 1044 431C1034 431 1018 425 1009 410C1007 405 999 374 995 356L975 276L930 96C926 81 883 11 817 11C766 11 755 55 755 92C755 138 772 200 806 288C822 329 826 340 826 360C826 405 794 442 744 442C649 442 612 297 612 288C612 278 624 278 624 278C634 278 635 280 640 296C667 390 707 420 741 420C749 420 766 420 766 388C766 363 756 337 749 318C709 212 691 155 691 108C691 19 754 -11 813 -11C852 -11 886 6 914 34C901 -18 889 -67 849 -120C823 -154 785 -183 739 -183C725 -183 680 -180 663 -141C679 -141 692 -141 706 -129C716 -120 726 -107 726 -88C726 -57 699 -53 689 -53C666 -53 633 -69 633 -118C633 -168 677 -205 739 -205C842 -205 945 -114 973 -1L1069 381C1073 395 1073 397 1073 404Z" stroke="rgb(0,0,0)" stroke-opacity="1" stroke-width="8" fill="rgb(0,0,0)" fill-opacity="1"></path></g></g><g><g transform="matrix(1,0,0,1,172.08331298828125,96.96668701171875)"><path transform="matrix(0.015300000000000001,0,0,-0.015300000000000001,0,0)" d="M722 250C722 261 713 270 702 270L409 270L409 563C409 574 400 583 389 583C378 583 369 574 369 563L369 270L76 270C65 270 56 261 56 250C56 239 65 230 76 230L369 230L369 -63C369 -74 378 -83 389 -83C400 -83 409 -74 409 -63L409 230L702 230C713 230 722 239 722 250Z" stroke="rgb(0,0,0)" stroke-opacity="1" stroke-width="8" fill="rgb(0,0,0)" fill-opacity="1"></path></g></g><g><g transform="matrix(1,0,0,1,187.050048828125,96.96668701171875)"><path transform="matrix(0.015300000000000001,0,0,-0.015300000000000001,0,0)" d="" stroke="rgb(0,0,0)" stroke-opacity="1" stroke-width="8" fill="rgb(0,0,0)" fill-opacity="1"></path></g></g><g><g transform="matrix(1,0,0,1,192.13330078125,96.96668701171875)"><path transform="matrix(0.015300000000000001,0,0,-0.015300000000000001,0,0)" d="M966 656C969 669 967 682 960 691C951 701 939 706 924 706C894 706 862 695 836 674C812 655 798 628 787 603C768 563 753 521 743 480L666 136L656 124L523 491C502 543 481 595 448 638C424 671 391 701 344 701C308 701 270 691 237 665C194 630 173 581 161 532L184 537C197 567 212 601 240 622C257 637 280 643 301 643C318 643 331 636 344 627C362 615 376 599 389 582L324 323C311 272 296 221 274 171C259 140 245 110 217 87C197 71 175 59 151 59C140 59 130 63 126 73C123 79 119 91 117 93C112 100 103 102 93 102C84 102 76 98 68 92C56 82 45 69 42 55C38 40 43 27 51 17C62 2 81 -4 101 -4C140 -4 179 16 212 44C258 83 283 123 304 169C319 200 352 308 374 378L418 535C505 381 564 183 613 -7L669 23L771 440C784 492 805 571 814 596C821 616 829 637 848 652C854 657 863 659 871 659C881 659 886 651 886 641C887 633 891 626 896 620C898 616 908 616 916 616L952 632C961 638 964 648 966 656ZM1973 656C1976 669 1974 682 1967 691C1958 701 1946 706 1931 706C1901 706 1869 695 1843 674C1819 655 1805 628 1794 603C1775 563 1760 521 1750 480L1673 136L1663 124L1530 491C1509 543 1488 595 1455 638C1431 671 1398 701 1351 701C1315 701 1277 691 1244 665C1201 630 1180 581 1168 532L1191 537C1204 567 1219 601 1247 622C1264 637 1287 643 1308 643C1325 643 1338 636 1351 627C1369 615 1383 599 1396 582L1331 323C1318 272 1303 221 1281 171C1266 140 1252 110 1224 87C1204 71 1182 59 1158 59C1147 59 1137 63 1133 73C1130 79 1126 91 1124 93C1119 100 1110 102 1100 102C1091 102 1083 98 1075 92C1063 82 1052 69 1049 55C1045 40 1050 27 1058 17C1069 2 1088 -4 1108 -4C1147 -4 1186 16 1219 44C1265 83 1290 123 1311 169C1326 200 1359 308 1381 378L1425 535C1512 381 1571 183 1620 -7L1676 23L1778 440C1791 492 1812 571 1821 596C1828 616 1836 637 1855 652C1861 657 1870 659 1878 659C1888 659 1893 651 1893 641C1894 633 1898 626 1903 620C1905 616 1915 616 1923 616L1959 632C1968 638 1971 648 1973 656Z" stroke="rgb(214,118,233)" stroke-opacity="1" stroke-width="8" fill="rgb(214,118,233)" fill-opacity="1"></path></g></g><g><g><g><g><g transform="matrix(1,0,0,1,223.4000244140625,99.81000610351563)"><path transform="matrix(0.01071,0,0,-0.01071,0,0)" d="M449 174L424 174C419 144 412 100 402 85C395 77 329 77 307 77L127 77L233 180C389 318 449 372 449 472C449 586 359 666 237 666C124 666 50 574 50 485C50 429 100 429 103 429C120 429 155 441 155 482C155 508 137 534 102 534C94 534 92 534 89 533C112 598 166 635 224 635C315 635 358 554 358 472C358 392 308 313 253 251L61 37C50 26 50 24 50 0L421 0Z" stroke="rgb(214,118,233)" stroke-opacity="1" stroke-width="8" fill="rgb(214,118,233)" fill-opacity="1"></path></g></g></g></g></g><g><g transform="matrix(1,0,0,1,229.6666259765625,97.116650390625)"><path transform="matrix(0.015300000000000001,0,0,-0.015300000000000001,0,0)" d="M332 -238C332 -235 330 -232 328 -230C224 -152 155 48 155 208L155 292C155 452 224 652 328 730C330 732 332 735 332 738C332 743 327 748 322 748C320 748 318 747 316 746C206 663 101 463 101 292L101 208C101 37 206 -163 316 -246C318 -247 320 -248 322 -248C327 -248 332 -243 332 -238Z" stroke="rgb(0,0,0)" stroke-opacity="1" stroke-width="8" fill="rgb(0,0,0)" fill-opacity="1"></path></g></g><g><g transform="matrix(1,0,0,1,235.61669921875,96.96668701171875)"><path transform="matrix(0.015300000000000001,0,0,-0.015300000000000001,0,0)" d="M455 500C455 566 437 705 335 705C196 705 42 423 42 194C42 100 71 -11 162 -11C303 -11 455 276 455 500ZM389 562C389 513 381 462 357 363L148 363C165 427 185 507 225 578C252 627 289 683 334 683C383 683 389 619 389 562ZM348 331C337 285 316 200 278 128C243 60 205 11 162 11C129 11 108 40 108 133C108 175 114 233 140 331Z" stroke="rgb(0,0,0)" stroke-opacity="1" stroke-width="8" fill="rgb(0,0,0)" fill-opacity="1"></path></g></g><g><g transform="matrix(1,0,0,1,242.800048828125,96.96668701171875)"><path transform="matrix(0.015300000000000001,0,0,-0.015300000000000001,0,0)" d="M203 1C203 67 178 106 139 106C106 106 86 81 86 53C86 26 106 0 139 0C151 0 164 4 174 13C177 15 179 16 179 16C179 16 181 15 181 1C181 -73 146 -133 113 -166C102 -177 102 -179 102 -182C102 -189 107 -193 112 -193C123 -193 203 -116 203 1Z" stroke="rgb(0,0,0)" stroke-opacity="1" stroke-width="8" fill="rgb(0,0,0)" fill-opacity="1"></path></g></g><g><g transform="matrix(1,0,0,1,250.11669921875,96.96668701171875)"><path transform="matrix(0.015300000000000001,0,0,-0.015300000000000001,0,0)" d="M527 376C527 428 468 442 434 442C376 442 341 389 329 366C304 432 250 442 221 442C117 442 60 313 60 288C60 278 72 278 72 278C80 278 83 280 85 289C119 395 185 420 219 420C238 420 273 411 273 353C273 322 256 255 219 115C203 53 168 11 124 11C118 11 95 11 74 24C99 29 121 50 121 78C121 105 99 113 84 113C54 113 29 87 29 55C29 9 79 -11 123 -11C189 -11 225 59 228 65C240 28 276 -11 336 -11C439 -11 496 118 496 143C496 153 487 153 484 153C475 153 473 149 471 142C438 35 370 11 338 11C299 11 283 43 283 77C283 99 289 121 300 165L334 302C340 328 363 420 433 420C438 420 462 420 483 407C455 402 435 377 435 353C435 337 446 318 473 318C495 318 527 336 527 376Z" stroke="rgb(0,0,0)" stroke-opacity="1" stroke-width="8" fill="rgb(0,0,0)" fill-opacity="1"></path></g></g><g><g transform="matrix(1,0,0,1,258.86669921875,96.96668701171875)"><path transform="matrix(0.015300000000000001,0,0,-0.015300000000000001,0,0)" d="M203 1C203 67 178 106 139 106C106 106 86 81 86 53C86 26 106 0 139 0C151 0 164 4 174 13C177 15 179 16 179 16C179 16 181 15 181 1C181 -73 146 -133 113 -166C102 -177 102 -179 102 -182C102 -189 107 -193 112 -193C123 -193 203 -116 203 1Z" stroke="rgb(0,0,0)" stroke-opacity="1" stroke-width="8" fill="rgb(0,0,0)" fill-opacity="1"></path></g></g><g><g transform="matrix(1,0,0,1,266.183349609375,96.96668701171875)"><path transform="matrix(0.015300000000000001,0,0,-0.015300000000000001,0,0)" d="M490 404C490 422 476 431 461 431C451 431 435 425 426 410C424 405 416 374 412 356L392 276L347 96C343 81 300 11 234 11C183 11 172 55 172 92C172 138 189 200 223 288C239 329 243 340 243 360C243 405 211 442 161 442C66 442 29 297 29 288C29 278 41 278 41 278C51 278 52 280 57 296C84 390 124 420 158 420C166 420 183 420 183 388C183 363 173 337 166 318C126 212 108 155 108 108C108 19 171 -11 230 -11C269 -11 303 6 331 34C318 -18 306 -67 266 -120C240 -154 202 -183 156 -183C142 -183 97 -180 80 -141C96 -141 109 -141 123 -129C133 -120 143 -107 143 -88C143 -57 116 -53 106 -53C83 -53 50 -69 50 -118C50 -168 94 -205 156 -205C259 -205 362 -114 390 -1L486 381C490 395 490 397 490 404Z" stroke="rgb(0,0,0)" stroke-opacity="1" stroke-width="8" fill="rgb(0,0,0)" fill-opacity="1"></path></g></g><g><g transform="matrix(1,0,0,1,273.683349609375,97.116650390625)"><path transform="matrix(0.015300000000000001,0,0,-0.015300000000000001,0,0)" d="M288 208L288 292C288 463 183 663 73 746C71 747 69 748 67 748C62 748 57 743 57 738C57 735 59 732 61 730C165 652 234 452 234 292L234 208C234 48 165 -152 61 -230C59 -232 57 -235 57 -238C57 -243 62 -248 67 -248C69 -248 71 -247 73 -246C183 -163 288 37 288 208Z" stroke="rgb(0,0,0)" stroke-opacity="1" stroke-width="8" fill="rgb(0,0,0)" fill-opacity="1"></path></g></g></g></g><g><g><g><g transform="matrix(1,0,0,1,190.5333251953125,54.16667175292969)"><path transform="matrix(0.012,0,0,-0.012,0,0)" d="M33 652L57 652C134 652 136 641 136 605L136 228C136 87 252 -22 388 -22C503 -22 593 71 610 185C613 205 613 214 613 254L613 574C613 607 613 652 716 652L716 683C680 682 632 680 598 680C563 680 515 682 479 683L479 652C582 652 582 605 582 578L582 231C582 89 485 9 390 9C343 9 225 34 225 224L225 605C225 641 227 652 304 652L328 652L328 683C293 680 219 680 181 680C143 680 68 680 33 683ZM782 0C817 1 868 3 895 3C921 3 973 1 1007 0L1007 31C940 31 929 31 929 76L929 260C929 364 1000 420 1064 420C1127 420 1138 366 1138 309L1138 76C1138 31 1127 31 1060 31L1060 0C1095 1 1146 3 1173 3C1199 3 1251 1 1285 0L1285 31C1233 31 1208 31 1207 61L1207 252C1207 338 1207 369 1176 405C1162 422 1129 442 1071 442C998 442 951 399 923 337L923 442L782 431L782 400C852 400 860 393 860 344L860 76C860 31 849 31 782 31ZM1333 0C1366 1 1413 3 1442 3C1472 3 1512 2 1552 0L1552 31C1485 31 1474 31 1474 76L1474 179L1538 234C1615 128 1657 72 1657 54C1657 35 1640 31 1621 31L1621 0C1649 1 1708 3 1729 3C1758 3 1787 2 1816 0L1816 31C1779 31 1757 31 1719 84L1592 263C1591 265 1586 271 1586 274C1586 278 1657 338 1667 346C1730 397 1772 399 1793 400L1793 431C1764 428 1751 428 1723 428C1687 428 1625 430 1611 431L1611 400C1630 399 1640 388 1640 375C1640 355 1626 343 1618 336L1477 214L1477 694L1333 683L1333 652C1403 652 1411 645 1411 596L1411 76C1411 31 1400 31 1333 31ZM1864 0C1899 1 1950 3 1977 3C2003 3 2055 1 2089 0L2089 31C2022 31 2011 31 2011 76L2011 260C2011 364 2082 420 2146 420C2209 420 2220 366 2220 309L2220 76C2220 31 2209 31 2142 31L2142 0C2177 1 2228 3 2255 3C2281 3 2333 1 2367 0L2367 31C2315 31 2290 31 2289 61L2289 252C2289 338 2289 369 2258 405C2244 422 2211 442 2153 442C2080 442 2033 399 2005 337L2005 442L1864 431L1864 400C1934 400 1942 393 1942 344L1942 76C1942 31 1931 31 1864 31ZM2415 214C2415 85 2519 -11 2636 -11C2757 -11 2858 87 2858 214C2858 342 2758 448 2637 448C2512 448 2415 339 2415 214ZM2498 222C2498 261 2498 315 2522 359C2549 405 2596 426 2636 426C2680 426 2723 404 2749 361C2775 318 2775 260 2775 222C2775 186 2775 132 2753 88C2731 43 2687 14 2637 14C2594 14 2550 35 2523 81C2498 125 2498 186 2498 222ZM2877 400C2927 400 2939 397 2951 365L3077 11C3082 -3 3085 -11 3098 -11C3111 -11 3113 -5 3118 9L3219 292L3321 8C3325 -3 3328 -11 3341 -11C3354 -11 3357 -2 3361 8L3478 336C3496 386 3527 399 3562 400L3562 431C3540 429 3511 428 3489 428C3460 428 3415 430 3396 431L3396 400C3432 399 3454 381 3454 352C3454 346 3454 344 3449 331L3358 75L3259 354C3255 366 3254 368 3254 373C3254 400 3293 400 3313 400L3313 431C3284 430 3233 428 3209 428C3179 428 3150 429 3120 431L3120 400C3157 400 3173 398 3183 385C3188 379 3199 349 3206 330L3120 88L3025 355C3020 367 3020 369 3020 373C3020 400 3059 400 3079 400L3079 431C3049 430 2993 428 2970 428C2966 428 2913 429 2877 431ZM3613 0C3648 1 3699 3 3726 3C3752 3 3804 1 3838 0L3838 31C3771 31 3760 31 3760 76L3760 260C3760 364 3831 420 3895 420C3958 420 3969 366 3969 309L3969 76C3969 31 3958 31 3891 31L3891 0C3926 1 3977 3 4004 3C4030 3 4082 1 4116 0L4116 31C4064 31 4039 31 4038 61L4038 252C4038 338 4038 369 4007 405C3993 422 3960 442 3902 442C3829 442 3782 399 3754 337L3754 442L3613 431L3613 400C3683 400 3691 393 3691 344L3691 76C3691 31 3680 31 3613 31ZM4504 0C4539 3 4613 3 4651 3C4689 3 4764 3 4799 0L4799 31L4775 31C4698 31 4696 42 4696 78L4696 316L4865 316C4985 316 5093 397 5093 497C5093 595 4994 683 4857 683L4504 683L4504 652L4528 652C4605 652 4607 641 4607 605L4607 78C4607 42 4605 31 4528 31L4504 31ZM4693 342L4693 612C4693 645 4695 652 4742 652L4831 652C4990 652 4990 546 4990 497C4990 450 4990 342 4831 342ZM5181 0C5216 1 5267 3 5294 3C5320 3 5372 1 5406 0L5406 31C5339 31 5328 31 5328 76L5328 260C5328 364 5399 420 5463 420C5526 420 5537 366 5537 309L5537 76C5537 31 5526 31 5459 31L5459 0C5494 1 5545 3 5572 3C5598 3 5650 1 5684 0L5684 31C5632 31 5607 31 5606 61L5606 252C5606 338 5606 369 5575 405C5561 422 5528 442 5470 442C5386 442 5342 382 5326 346L5325 346L5325 694L5181 683L5181 652C5251 652 5259 645 5259 596L5259 76C5259 31 5248 31 5181 31ZM5695 -124C5695 -169 5737 -205 5787 -205C5850 -205 5891 -148 5915 -91L6091 336C6117 399 6168 400 6184 400L6184 431C6161 429 6132 428 6109 428C6091 428 6044 430 6022 431L6022 400C6053 399 6069 382 6069 357C6069 347 6068 345 6063 333L5962 87L5851 356C5847 366 5845 370 5845 374C5845 400 5882 400 5901 400L5901 431C5875 430 5809 428 5792 428C5765 428 5725 429 5695 431L5695 400C5743 400 5762 400 5776 365L5926 0C5921 -13 5907 -46 5901 -59C5879 -114 5851 -183 5787 -183C5782 -183 5759 -183 5740 -165C5771 -161 5779 -139 5779 -123C5779 -97 5760 -81 5737 -81C5717 -81 5695 -94 5695 -124ZM6236 13C6236 -4 6236 -11 6247 -11C6252 -11 6253 -10 6272 9C6274 11 6274 13 6292 32C6336 -10 6381 -11 6402 -11C6517 -11 6563 56 6563 128C6563 181 6533 211 6521 223C6488 255 6449 263 6407 271C6351 282 6284 295 6284 353C6284 388 6310 429 6396 429C6506 429 6511 339 6513 308C6514 299 6523 299 6525 299C6538 299 6538 304 6538 323L6538 424C6538 441 6538 448 6527 448C6522 448 6520 448 6507 436C6504 432 6494 423 6490 420C6452 448 6411 448 6396 448C6274 448 6236 381 6236 325C6236 290 6252 262 6279 240C6311 214 6339 208 6411 194C6433 190 6515 174 6515 102C6515 51 6480 11 6402 11C6318 11 6282 68 6263 153C6260 166 6259 170 6249 170C6236 170 6236 163 6236 145ZM6672 616C6672 589 6694 563 6725 563C6753 563 6778 584 6778 616C6778 648 6753 669 6725 669C6694 669 6672 642 6672 616ZM6630 0C6662 1 6716 3 6740 3C6775 3 6810 1 6844 0L6844 31C6778 31 6774 36 6774 75L6774 442L6634 431L6634 400C6699 400 6708 394 6708 345L6708 76C6708 31 6697 31 6630 31ZM6908 216C6908 88 7007 -11 7123 -11C7257 -11 7289 109 7289 119C7289 129 7279 129 7276 129C7267 129 7265 125 7263 119C7234 26 7169 14 7132 14C7079 14 6991 57 6991 218C6991 381 7073 423 7126 423C7135 423 7198 422 7233 386C7192 383 7186 353 7186 340C7186 314 7204 294 7232 294C7258 294 7278 311 7278 341C7278 409 7202 448 7125 448C7000 448 6908 340 6908 216ZM7351 13C7351 -4 7351 -11 7362 -11C7367 -11 7368 -10 7387 9C7389 11 7389 13 7407 32C7451 -10 7496 -11 7517 -11C7632 -11 7678 56 7678 128C7678 181 7648 211 7636 223C7603 255 7564 263 7522 271C7466 282 7399 295 7399 353C7399 388 7425 429 7511 429C7621 429 7626 339 7628 308C7629 299 7638 299 7640 299C7653 299 7653 304 7653 323L7653 424C7653 441 7653 448 7642 448C7637 448 7635 448 7622 436C7619 432 7609 423 7605 420C7567 448 7526 448 7511 448C7389 448 7351 381 7351 325C7351 290 7367 262 7394 240C7426 214 7454 208 7526 194C7548 190 7630 174 7630 102C7630 51 7595 11 7517 11C7433 11 7397 68 7378 153C7375 166 7374 170 7364 170C7351 170 7351 163 7351 145Z" stroke="rgb(74,144,226)" stroke-opacity="1" stroke-width="8" fill="rgb(74,144,226)" fill-opacity="1"></path></g></g></g></g><g><g><g><g transform="matrix(1,0,0,1,96.66668701171875,231.34998779296876)"><path transform="matrix(0.015300000000000001,0,0,-0.015300000000000001,0,0)" d="M455 500C455 566 437 705 335 705C196 705 42 423 42 194C42 100 71 -11 162 -11C303 -11 455 276 455 500ZM389 562C389 513 381 462 357 363L148 363C165 427 185 507 225 578C252 627 289 683 334 683C383 683 389 619 389 562ZM348 331C337 285 316 200 278 128C243 60 205 11 162 11C129 11 108 40 108 133C108 175 114 233 140 331Z" stroke="rgb(0,0,0)" stroke-opacity="1" stroke-width="8" fill="rgb(0,0,0)" fill-opacity="1"></path></g></g><g><g transform="matrix(1,0,0,1,108.433349609375,231.34998779296876)"><path transform="matrix(0.015300000000000001,0,0,-0.015300000000000001,0,0)" d="M850 347C850 358 841 367 830 367L310 367C299 367 290 358 290 347C290 336 299 327 310 327L830 327C841 327 850 336 850 347ZM850 153C850 164 841 173 830 173L310 173C299 173 290 164 290 153C290 142 299 133 310 133L830 133C841 133 850 142 850 153ZM162 369C162 398 138 422 109 422C80 422 56 398 56 369C56 340 80 316 109 316C138 316 162 340 162 369ZM162 131C162 160 138 184 109 184C80 184 56 160 56 131C56 102 80 78 109 78C138 78 162 102 162 131Z" stroke="rgb(0,0,0)" stroke-opacity="1" stroke-width="8" fill="rgb(0,0,0)" fill-opacity="1"></path></g></g><g><g><g transform="matrix(1,0,0,1,126.88330078125,231.34998779296876)"><path transform="matrix(0.015300000000000001,0,0,-0.015300000000000001,0,0)" d="M813 0L813 31C761 31 736 31 735 61L735 252C735 338 735 369 704 405C690 422 657 442 599 442C515 442 471 382 454 344C440 431 366 442 321 442C248 442 201 399 173 337L173 442L32 431L32 400C102 400 110 393 110 344L110 76C110 31 99 31 32 31L32 0L145 3L257 0L257 31C190 31 179 31 179 76L179 260C179 364 250 420 314 420C377 420 388 366 388 309L388 76C388 31 377 31 310 31L310 0L423 3L535 0L535 31C468 31 457 31 457 76L457 260C457 364 528 420 592 420C655 420 666 366 666 309L666 76C666 31 655 31 588 31L588 0L701 3ZM1080 0L1080 31C1014 31 1010 36 1010 75L1010 442L870 431L870 400C935 400 944 394 944 345L944 76C944 31 933 31 866 31L866 0L976 3C1011 3 1046 1 1080 0ZM1025 604C1025 631 1002 657 972 657C938 657 918 629 918 604C918 577 941 551 971 551C1005 551 1025 579 1025 604ZM1646 0L1646 31C1594 31 1569 31 1568 61L1568 252C1568 338 1568 369 1537 405C1523 422 1490 442 1432 442C1359 442 1312 399 1284 337L1284 442L1143 431L1143 400C1213 400 1221 393 1221 344L1221 76C1221 31 1210 31 1143 31L1143 0L1256 3L1368 0L1368 31C1301 31 1290 31 1290 76L1290 260C1290 364 1361 420 1425 420C1488 420 1499 366 1499 309L1499 76C1499 31 1488 31 1421 31L1421 0L1534 3Z" stroke="rgb(0,0,0)" stroke-opacity="1" stroke-width="8" fill="rgb(0,0,0)" fill-opacity="1"></path></g></g></g><g><g><g><g><g transform="matrix(1,0,0,1,152.8499755859375,235.84333129882813)"><path transform="matrix(0.01071,0,0,-0.01071,0,0)" d="M455 500C455 566 437 705 335 705C196 705 42 423 42 194C42 100 71 -11 162 -11C303 -11 455 276 455 500ZM389 562C389 513 381 462 357 363L148 363C165 427 185 507 225 578C252 627 289 683 334 683C383 683 389 619 389 562ZM348 331C337 285 316 200 278 128C243 60 205 11 162 11C129 11 108 40 108 133C108 175 114 233 140 331Z" stroke="rgb(0,0,0)" stroke-opacity="1" stroke-width="8" fill="rgb(0,0,0)" fill-opacity="1"></path></g></g></g></g></g><g><g transform="matrix(1,0,0,1,158.79998779296875,231.34998779296876)"><path transform="matrix(0.015300000000000001,0,0,-0.015300000000000001,0,0)" d="M728 607C733 627 730 646 719 659C704 679 677 685 646 685C594 685 537 670 490 634C456 608 424 574 400 540C369 496 352 451 334 403C307 333 259 230 219 199C201 185 178 169 161 159C147 150 118 133 104 116C71 77 51 44 40 11L56 -6C71 21 92 52 116 80C132 99 169 115 192 115C218 115 265 94 320 51C341 30 356 21 393 6C412 -3 457 -7 481 -7C524 -7 556 18 592 48C641 89 661 146 675 202C677 213 684 243 684 260L659 255C657 241 653 217 649 200C640 162 628 139 601 111C575 84 551 72 518 72C496 72 475 77 456 83C427 91 370 117 350 134C350 134 309 170 229 170L227 176C246 185 270 203 294 225C316 245 341 274 356 303C385 350 402 386 418 428C436 473 465 539 484 574C496 597 508 608 530 625C551 642 573 651 594 651C613 651 624 647 633 635C640 624 645 604 642 590C639 579 635 563 639 558C645 550 655 546 667 546C667 546 713 547 728 607Z" stroke="rgb(0,0,0)" stroke-opacity="1" stroke-width="8" fill="rgb(0,0,0)" fill-opacity="1"></path></g></g><g><svg x="171.6500244140625" overflow="visible" y="215.20001220703125" height="24" width="7.6500091552734375"><path d=" M 6.41 1.71 c 0.00 -0.10 -0.11 -0.18 -0.24 -0.18 c -0.06 0.00 -0.10 0.02 -0.14 0.03 c -3.08 1.68 -4.85 6.27 -4.85 10.35 v 0.08 h 1.30 v -0.08 c 0.00 -3.91 1.03 -8.47 3.96 -10.08 c 0.07 -0.03 0.10 -0.08 0.10 -0.13 z   M 1.15 12.00 v 0.00 h 1.30 v 0.00 z" style="fill:rgb(0,0,0);fill-opacity:1;stroke-width:1px;stroke:none;stroke-opacity:1;"></path><path d=" M 6.41 22.29 c 0.00 0.10 -0.11 0.18 -0.24 0.18 c -0.06 0.00 -0.10 -0.02 -0.14 -0.03 c -3.08 -1.68 -4.85 -6.27 -4.85 -10.35 v -0.08 h 1.30 v 0.08 c 0.00 3.91 1.03 8.47 3.96 10.08 c 0.07 0.03 0.10 0.08 0.10 0.13 z" style="fill:rgb(0,0,0);fill-opacity:1;stroke-width:1px;stroke:none;stroke-opacity:1;"></path></svg></g><g><g transform="matrix(1,0,0,1,177.76666259765625,231.34998779296876)"><path transform="matrix(0.015300000000000001,0,0,-0.015300000000000001,0,0)" d="M455 500C455 566 437 705 335 705C196 705 42 423 42 194C42 100 71 -11 162 -11C303 -11 455 276 455 500ZM389 562C389 513 381 462 357 363L148 363C165 427 185 507 225 578C252 627 289 683 334 683C383 683 389 619 389 562ZM348 331C337 285 316 200 278 128C243 60 205 11 162 11C129 11 108 40 108 133C108 175 114 233 140 331Z" stroke="rgb(0,0,0)" stroke-opacity="1" stroke-width="8" fill="rgb(0,0,0)" fill-opacity="1"></path></g></g><g><g transform="matrix(1,0,0,1,184.95001220703125,231.34998779296876)"><path transform="matrix(0.015300000000000001,0,0,-0.015300000000000001,0,0)" d="M203 1C203 67 178 106 139 106C106 106 86 81 86 53C86 26 106 0 139 0C151 0 164 4 174 13C177 15 179 16 179 16C179 16 181 15 181 1C181 -73 146 -133 113 -166C102 -177 102 -179 102 -182C102 -189 107 -193 112 -193C123 -193 203 -116 203 1Z" stroke="rgb(0,0,0)" stroke-opacity="1" stroke-width="8" fill="rgb(0,0,0)" fill-opacity="1"></path></g></g><g><g transform="matrix(1,0,0,1,192.2666015625,231.34998779296876)"><path transform="matrix(0.015300000000000001,0,0,-0.015300000000000001,0,0)" d="" stroke="rgb(0,0,0)" stroke-opacity="1" stroke-width="8" fill="rgb(0,0,0)" fill-opacity="1"></path></g></g><g><g transform="matrix(1,0,0,1,197.3499755859375,231.34998779296876)"><path transform="matrix(0.015300000000000001,0,0,-0.015300000000000001,0,0)" d="M159 -230L159 730C159 741 150 750 139 750C128 750 119 741 119 730L119 -230C119 -241 128 -250 139 -250C150 -250 159 -241 159 -230Z" stroke="rgb(0,0,0)" stroke-opacity="1" stroke-width="8" fill="rgb(0,0,0)" fill-opacity="1"></path></g></g><g><g transform="matrix(1,0,0,1,201.5999755859375,231.34998779296876)"><path transform="matrix(0.015300000000000001,0,0,-0.015300000000000001,0,0)" d="M490 404C490 422 476 431 461 431C451 431 435 425 426 410C424 405 416 374 412 356L392 276L347 96C343 81 300 11 234 11C183 11 172 55 172 92C172 138 189 200 223 288C239 329 243 340 243 360C243 405 211 442 161 442C66 442 29 297 29 288C29 278 41 278 41 278C51 278 52 280 57 296C84 390 124 420 158 420C166 420 183 420 183 388C183 363 173 337 166 318C126 212 108 155 108 108C108 19 171 -11 230 -11C269 -11 303 6 331 34C318 -18 306 -67 266 -120C240 -154 202 -183 156 -183C142 -183 97 -180 80 -141C96 -141 109 -141 123 -129C133 -120 143 -107 143 -88C143 -57 116 -53 106 -53C83 -53 50 -69 50 -118C50 -168 94 -205 156 -205C259 -205 362 -114 390 -1L486 381C490 395 490 397 490 404Z" stroke="rgb(0,0,0)" stroke-opacity="1" stroke-width="8" fill="rgb(0,0,0)" fill-opacity="1"></path></g></g><g><g transform="matrix(1,0,0,1,212.1666259765625,231.34998779296876)"><path transform="matrix(0.015300000000000001,0,0,-0.015300000000000001,0,0)" d="M722 250C722 261 713 270 702 270L76 270C65 270 56 261 56 250C56 239 65 230 76 230L702 230C713 230 722 239 722 250Z" stroke="rgb(0,0,0)" stroke-opacity="1" stroke-width="8" fill="rgb(0,0,0)" fill-opacity="1"></path></g></g><g><g transform="matrix(1,0,0,1,227.13330078125,231.34998779296876)"><path transform="matrix(0.015300000000000001,0,0,-0.015300000000000001,0,0)" d="M490 404C490 422 476 431 461 431C451 431 435 425 426 410C424 405 416 374 412 356L392 276L347 96C343 81 300 11 234 11C183 11 172 55 172 92C172 138 189 200 223 288C239 329 243 340 243 360C243 405 211 442 161 442C66 442 29 297 29 288C29 278 41 278 41 278C51 278 52 280 57 296C84 390 124 420 158 420C166 420 183 420 183 388C183 363 173 337 166 318C126 212 108 155 108 108C108 19 171 -11 230 -11C269 -11 303 6 331 34C318 -18 306 -67 266 -120C240 -154 202 -183 156 -183C142 -183 97 -180 80 -141C96 -141 109 -141 123 -129C133 -120 143 -107 143 -88C143 -57 116 -53 106 -53C83 -53 50 -69 50 -118C50 -168 94 -205 156 -205C259 -205 362 -114 390 -1L486 381C490 395 490 397 490 404Z" stroke="rgb(0,0,0)" stroke-opacity="1" stroke-width="8" fill="rgb(0,0,0)" fill-opacity="1"></path></g></g><g><g><g><g><g transform="matrix(1,0,0,1,235.0999755859375,234.19333740234376)"><path transform="matrix(0.01071,0,0,-0.01071,0,0)" d="M420 356C420 401 377 442 301 442C169 442 132 340 132 296C132 218 206 203 235 197C287 187 339 176 339 121C339 95 316 11 196 11C182 11 105 11 82 64C120 59 145 89 145 117C145 140 129 152 108 152C82 152 52 131 52 86C52 29 109 -11 195 -11C357 -11 396 110 396 155C396 191 377 216 365 228C338 256 309 261 265 270C229 278 189 285 189 330C189 359 213 420 301 420C326 420 376 413 391 374C363 373 343 351 343 329C343 315 352 300 374 300C396 300 420 317 420 356Z" stroke="rgb(0,0,0)" stroke-opacity="1" stroke-width="8" fill="rgb(0,0,0)" fill-opacity="1"></path></g></g></g></g></g><g><g transform="matrix(1,0,0,1,241.050048828125,231.34998779296876)"><path transform="matrix(0.015300000000000001,0,0,-0.015300000000000001,0,0)" d="M159 -230L159 730C159 741 150 750 139 750C128 750 119 741 119 730L119 -230C119 -241 128 -250 139 -250C150 -250 159 -241 159 -230Z" stroke="rgb(0,0,0)" stroke-opacity="1" stroke-width="8" fill="rgb(0,0,0)" fill-opacity="1"></path></g></g><g><g><g><g><g transform="matrix(1,0,0,1,246.199951171875,225.47666259765626)"><path transform="matrix(0.01071,0,0,-0.01071,0,0)" d="M449 174L424 174C419 144 412 100 402 85C395 77 329 77 307 77L127 77L233 180C389 318 449 372 449 472C449 586 359 666 237 666C124 666 50 574 50 485C50 429 100 429 103 429C120 429 155 441 155 482C155 508 137 534 102 534C94 534 92 534 89 533C112 598 166 635 224 635C315 635 358 554 358 472C358 392 308 313 253 251L61 37C50 26 50 24 50 0L421 0Z" stroke="rgb(0,0,0)" stroke-opacity="1" stroke-width="8" fill="rgb(0,0,0)" fill-opacity="1"></path></g></g></g></g></g><g><g transform="matrix(1,0,0,1,252.4666748046875,231.34998779296876)"><path transform="matrix(0.015300000000000001,0,0,-0.015300000000000001,0,0)" d="M203 1C203 67 178 106 139 106C106 106 86 81 86 53C86 26 106 0 139 0C151 0 164 4 174 13C177 15 179 16 179 16C179 16 181 15 181 1C181 -73 146 -133 113 -166C102 -177 102 -179 102 -182C102 -189 107 -193 112 -193C123 -193 203 -116 203 1Z" stroke="rgb(0,0,0)" stroke-opacity="1" stroke-width="8" fill="rgb(0,0,0)" fill-opacity="1"></path></g></g><g><g transform="matrix(1,0,0,1,259.7833251953125,231.34998779296876)"><path transform="matrix(0.015300000000000001,0,0,-0.015300000000000001,0,0)" d="M159 -230L159 730C159 741 150 750 139 750C128 750 119 741 119 730L119 -230C119 -241 128 -250 139 -250C150 -250 159 -241 159 -230Z" stroke="rgb(0,0,0)" stroke-opacity="1" stroke-width="8" fill="rgb(0,0,0)" fill-opacity="1"></path></g></g><g><g transform="matrix(1,0,0,1,264.0333251953125,231.34998779296876)"><path transform="matrix(0.015300000000000001,0,0,-0.015300000000000001,0,0)" d="M527 376C527 428 468 442 434 442C376 442 341 389 329 366C304 432 250 442 221 442C117 442 60 313 60 288C60 278 72 278 72 278C80 278 83 280 85 289C119 395 185 420 219 420C238 420 273 411 273 353C273 322 256 255 219 115C203 53 168 11 124 11C118 11 95 11 74 24C99 29 121 50 121 78C121 105 99 113 84 113C54 113 29 87 29 55C29 9 79 -11 123 -11C189 -11 225 59 228 65C240 28 276 -11 336 -11C439 -11 496 118 496 143C496 153 487 153 484 153C475 153 473 149 471 142C438 35 370 11 338 11C299 11 283 43 283 77C283 99 289 121 300 165L334 302C340 328 363 420 433 420C438 420 462 420 483 407C455 402 435 377 435 353C435 337 446 318 473 318C495 318 527 336 527 376Z" stroke="rgb(0,0,0)" stroke-opacity="1" stroke-width="8" fill="rgb(0,0,0)" fill-opacity="1"></path></g></g><g><g transform="matrix(1,0,0,1,275.8499755859375,231.34998779296876)"><path transform="matrix(0.015300000000000001,0,0,-0.015300000000000001,0,0)" d="M722 250C722 261 713 270 702 270L76 270C65 270 56 261 56 250C56 239 65 230 76 230L702 230C713 230 722 239 722 250Z" stroke="rgb(0,0,0)" stroke-opacity="1" stroke-width="8" fill="rgb(0,0,0)" fill-opacity="1"></path></g></g><g><g transform="matrix(1,0,0,1,290.816650390625,231.34998779296876)"><path transform="matrix(0.015300000000000001,0,0,-0.015300000000000001,0,0)" d="M527 376C527 428 468 442 434 442C376 442 341 389 329 366C304 432 250 442 221 442C117 442 60 313 60 288C60 278 72 278 72 278C80 278 83 280 85 289C119 395 185 420 219 420C238 420 273 411 273 353C273 322 256 255 219 115C203 53 168 11 124 11C118 11 95 11 74 24C99 29 121 50 121 78C121 105 99 113 84 113C54 113 29 87 29 55C29 9 79 -11 123 -11C189 -11 225 59 228 65C240 28 276 -11 336 -11C439 -11 496 118 496 143C496 153 487 153 484 153C475 153 473 149 471 142C438 35 370 11 338 11C299 11 283 43 283 77C283 99 289 121 300 165L334 302C340 328 363 420 433 420C438 420 462 420 483 407C455 402 435 377 435 353C435 337 446 318 473 318C495 318 527 336 527 376Z" stroke="rgb(0,0,0)" stroke-opacity="1" stroke-width="8" fill="rgb(0,0,0)" fill-opacity="1"></path></g></g><g><g><g><g><g transform="matrix(1,0,0,1,300.0333251953125,234.19333740234376)"><path transform="matrix(0.01071,0,0,-0.01071,0,0)" d="M420 356C420 401 377 442 301 442C169 442 132 340 132 296C132 218 206 203 235 197C287 187 339 176 339 121C339 95 316 11 196 11C182 11 105 11 82 64C120 59 145 89 145 117C145 140 129 152 108 152C82 152 52 131 52 86C52 29 109 -11 195 -11C357 -11 396 110 396 155C396 191 377 216 365 228C338 256 309 261 265 270C229 278 189 285 189 330C189 359 213 420 301 420C326 420 376 413 391 374C363 373 343 351 343 329C343 315 352 300 374 300C396 300 420 317 420 356Z" stroke="rgb(0,0,0)" stroke-opacity="1" stroke-width="8" fill="rgb(0,0,0)" fill-opacity="1"></path></g></g></g></g></g><g><g transform="matrix(1,0,0,1,305.9833984375,231.34998779296876)"><path transform="matrix(0.015300000000000001,0,0,-0.015300000000000001,0,0)" d="M159 -230L159 730C159 741 150 750 139 750C128 750 119 741 119 730L119 -230C119 -241 128 -250 139 -250C150 -250 159 -241 159 -230Z" stroke="rgb(0,0,0)" stroke-opacity="1" stroke-width="8" fill="rgb(0,0,0)" fill-opacity="1"></path></g></g><g><g><g><g><g transform="matrix(1,0,0,1,311.13330078125,225.47666259765626)"><path transform="matrix(0.01071,0,0,-0.01071,0,0)" d="M449 174L424 174C419 144 412 100 402 85C395 77 329 77 307 77L127 77L233 180C389 318 449 372 449 472C449 586 359 666 237 666C124 666 50 574 50 485C50 429 100 429 103 429C120 429 155 441 155 482C155 508 137 534 102 534C94 534 92 534 89 533C112 598 166 635 224 635C315 635 358 554 358 472C358 392 308 313 253 251L61 37C50 26 50 24 50 0L421 0Z" stroke="rgb(0,0,0)" stroke-opacity="1" stroke-width="8" fill="rgb(0,0,0)" fill-opacity="1"></path></g></g></g></g></g><g><svg x="315.86669921875" overflow="visible" y="215.20001220703125" height="24" width="7.649993896484375"><path d=" M 1.19 1.71 c 0.00 -0.10 0.11 -0.18 0.24 -0.18 c 0.06 0.00 0.10 0.02 0.14 0.03 c 3.08 1.68 4.85 6.27 4.85 10.35 v 0.08 h -1.30 v -0.08 c 0.00 -3.91 -1.03 -8.47 -3.96 -10.08 c -0.07 -0.03 -0.10 -0.08 -0.10 -0.13 z  M 6.45 12.00 v 0.00 h -1.30 v 0.00 z" style="fill:rgb(0,0,0);fill-opacity:1;stroke-width:1px;stroke:none;stroke-opacity:1;"></path><path d=" M 1.19 22.29 c 0.00 0.10 0.11 0.18 0.24 0.18 c 0.06 0.00 0.10 -0.02 0.14 -0.03 c 3.08 -1.68 4.85 -6.27 4.85 -10.35 v -0.08 h -1.30 v 0.08 c 0.00 3.91 -1.03 8.47 -3.96 10.08 c -0.07 0.03 -0.10 0.08 -0.10 0.13 z" style="fill:rgb(0,0,0);fill-opacity:1;stroke-width:1px;stroke:none;stroke-opacity:1;"></path></svg></g><g><g transform="matrix(1,0,0,1,324.5833740234375,231.34998779296876)"><path transform="matrix(0.015300000000000001,0,0,-0.015300000000000001,0,0)" d="" stroke="rgb(0,0,0)" stroke-opacity="1" stroke-width="8" fill="rgb(0,0,0)" fill-opacity="1"></path></g></g></g></g><g><g><g><g transform="matrix(1,0,0,1,92.63330078125,156.81666259765626)"><path transform="matrix(0.015300000000000001,0,0,-0.015300000000000001,0,0)" d="M966 656C969 669 967 682 960 691C951 701 939 706 924 706C894 706 862 695 836 674C812 655 798 628 787 603C768 563 753 521 743 480L666 136L656 124L523 491C502 543 481 595 448 638C424 671 391 701 344 701C308 701 270 691 237 665C194 630 173 581 161 532L184 537C197 567 212 601 240 622C257 637 280 643 301 643C318 643 331 636 344 627C362 615 376 599 389 582L324 323C311 272 296 221 274 171C259 140 245 110 217 87C197 71 175 59 151 59C140 59 130 63 126 73C123 79 119 91 117 93C112 100 103 102 93 102C84 102 76 98 68 92C56 82 45 69 42 55C38 40 43 27 51 17C62 2 81 -4 101 -4C140 -4 179 16 212 44C258 83 283 123 304 169C319 200 352 308 374 378L418 535C505 381 564 183 613 -7L669 23L771 440C784 492 805 571 814 596C821 616 829 637 848 652C854 657 863 659 871 659C881 659 886 651 886 641C887 633 891 626 896 620C898 616 908 616 916 616L952 632C961 638 964 648 966 656ZM1973 656C1976 669 1974 682 1967 691C1958 701 1946 706 1931 706C1901 706 1869 695 1843 674C1819 655 1805 628 1794 603C1775 563 1760 521 1750 480L1673 136L1663 124L1530 491C1509 543 1488 595 1455 638C1431 671 1398 701 1351 701C1315 701 1277 691 1244 665C1201 630 1180 581 1168 532L1191 537C1204 567 1219 601 1247 622C1264 637 1287 643 1308 643C1325 643 1338 636 1351 627C1369 615 1383 599 1396 582L1331 323C1318 272 1303 221 1281 171C1266 140 1252 110 1224 87C1204 71 1182 59 1158 59C1147 59 1137 63 1133 73C1130 79 1126 91 1124 93C1119 100 1110 102 1100 102C1091 102 1083 98 1075 92C1063 82 1052 69 1049 55C1045 40 1050 27 1058 17C1069 2 1088 -4 1108 -4C1147 -4 1186 16 1219 44C1265 83 1290 123 1311 169C1326 200 1359 308 1381 378L1425 535C1512 381 1571 183 1620 -7L1676 23L1778 440C1791 492 1812 571 1821 596C1828 616 1836 637 1855 652C1861 657 1870 659 1878 659C1888 659 1893 651 1893 641C1894 633 1898 626 1903 620C1905 616 1915 616 1923 616L1959 632C1968 638 1971 648 1973 656Z" stroke="rgb(0,0,0)" stroke-opacity="1" stroke-width="8" fill="rgb(0,0,0)" fill-opacity="1"></path></g></g><g><g transform="matrix(1,0,0,1,123.433349609375,156.96668701171876)"><path transform="matrix(0.015300000000000001,0,0,-0.015300000000000001,0,0)" d="M332 -238C332 -235 330 -232 328 -230C224 -152 155 48 155 208L155 292C155 452 224 652 328 730C330 732 332 735 332 738C332 743 327 748 322 748C320 748 318 747 316 746C206 663 101 463 101 292L101 208C101 37 206 -163 316 -246C318 -247 320 -248 322 -248C327 -248 332 -243 332 -238Z" stroke="rgb(0,0,0)" stroke-opacity="1" stroke-width="8" fill="rgb(0,0,0)" fill-opacity="1"></path></g></g><g><g transform="matrix(1,0,0,1,129.38330078125,156.81666259765626)"><path transform="matrix(0.015300000000000001,0,0,-0.015300000000000001,0,0)" d="M455 500C455 566 437 705 335 705C196 705 42 423 42 194C42 100 71 -11 162 -11C303 -11 455 276 455 500ZM389 562C389 513 381 462 357 363L148 363C165 427 185 507 225 578C252 627 289 683 334 683C383 683 389 619 389 562ZM348 331C337 285 316 200 278 128C243 60 205 11 162 11C129 11 108 40 108 133C108 175 114 233 140 331Z" stroke="rgb(0,0,0)" stroke-opacity="1" stroke-width="8" fill="rgb(0,0,0)" fill-opacity="1"></path></g></g><g><g transform="matrix(1,0,0,1,136.566650390625,156.81666259765626)"><path transform="matrix(0.015300000000000001,0,0,-0.015300000000000001,0,0)" d="M203 1C203 67 178 106 139 106C106 106 86 81 86 53C86 26 106 0 139 0C151 0 164 4 174 13C177 15 179 16 179 16C179 16 181 15 181 1C181 -73 146 -133 113 -166C102 -177 102 -179 102 -182C102 -189 107 -193 112 -193C123 -193 203 -116 203 1Z" stroke="rgb(0,0,0)" stroke-opacity="1" stroke-width="8" fill="rgb(0,0,0)" fill-opacity="1"></path></g></g><g><g transform="matrix(1,0,0,1,143.88330078125,156.81666259765626)"><path transform="matrix(0.015300000000000001,0,0,-0.015300000000000001,0,0)" d="M527 376C527 428 468 442 434 442C376 442 341 389 329 366C304 432 250 442 221 442C117 442 60 313 60 288C60 278 72 278 72 278C80 278 83 280 85 289C119 395 185 420 219 420C238 420 273 411 273 353C273 322 256 255 219 115C203 53 168 11 124 11C118 11 95 11 74 24C99 29 121 50 121 78C121 105 99 113 84 113C54 113 29 87 29 55C29 9 79 -11 123 -11C189 -11 225 59 228 65C240 28 276 -11 336 -11C439 -11 496 118 496 143C496 153 487 153 484 153C475 153 473 149 471 142C438 35 370 11 338 11C299 11 283 43 283 77C283 99 289 121 300 165L334 302C340 328 363 420 433 420C438 420 462 420 483 407C455 402 435 377 435 353C435 337 446 318 473 318C495 318 527 336 527 376Z" stroke="rgb(0,0,0)" stroke-opacity="1" stroke-width="8" fill="rgb(0,0,0)" fill-opacity="1"></path></g></g><g><g transform="matrix(1,0,0,1,152.63330078125,156.81666259765626)"><path transform="matrix(0.015300000000000001,0,0,-0.015300000000000001,0,0)" d="M203 1C203 67 178 106 139 106C106 106 86 81 86 53C86 26 106 0 139 0C151 0 164 4 174 13C177 15 179 16 179 16C179 16 181 15 181 1C181 -73 146 -133 113 -166C102 -177 102 -179 102 -182C102 -189 107 -193 112 -193C123 -193 203 -116 203 1Z" stroke="rgb(0,0,0)" stroke-opacity="1" stroke-width="8" fill="rgb(0,0,0)" fill-opacity="1"></path></g></g><g><g transform="matrix(1,0,0,1,159.95001220703125,156.81666259765626)"><path transform="matrix(0.015300000000000001,0,0,-0.015300000000000001,0,0)" d="M490 404C490 422 476 431 461 431C451 431 435 425 426 410C424 405 416 374 412 356L392 276L347 96C343 81 300 11 234 11C183 11 172 55 172 92C172 138 189 200 223 288C239 329 243 340 243 360C243 405 211 442 161 442C66 442 29 297 29 288C29 278 41 278 41 278C51 278 52 280 57 296C84 390 124 420 158 420C166 420 183 420 183 388C183 363 173 337 166 318C126 212 108 155 108 108C108 19 171 -11 230 -11C269 -11 303 6 331 34C318 -18 306 -67 266 -120C240 -154 202 -183 156 -183C142 -183 97 -180 80 -141C96 -141 109 -141 123 -129C133 -120 143 -107 143 -88C143 -57 116 -53 106 -53C83 -53 50 -69 50 -118C50 -168 94 -205 156 -205C259 -205 362 -114 390 -1L486 381C490 395 490 397 490 404Z" stroke="rgb(0,0,0)" stroke-opacity="1" stroke-width="8" fill="rgb(0,0,0)" fill-opacity="1"></path></g></g><g><g transform="matrix(1,0,0,1,167.45001220703125,156.96668701171876)"><path transform="matrix(0.015300000000000001,0,0,-0.015300000000000001,0,0)" d="M288 208L288 292C288 463 183 663 73 746C71 747 69 748 67 748C62 748 57 743 57 738C57 735 59 732 61 730C165 652 234 452 234 292L234 208C234 48 165 -152 61 -230C59 -232 57 -235 57 -238C57 -243 62 -248 67 -248C69 -248 71 -247 73 -246C183 -163 288 37 288 208Z" stroke="rgb(0,0,0)" stroke-opacity="1" stroke-width="8" fill="rgb(0,0,0)" fill-opacity="1"></path></g></g><g><g transform="matrix(1,0,0,1,173.4000244140625,156.81666259765626)"><path transform="matrix(0.015300000000000001,0,0,-0.015300000000000001,0,0)" d="" stroke="rgb(0,0,0)" stroke-opacity="1" stroke-width="8" fill="rgb(0,0,0)" fill-opacity="1"></path></g></g><g><g transform="matrix(1,0,0,1,183.066650390625,156.81666259765626)"><path transform="matrix(0.015300000000000001,0,0,-0.015300000000000001,0,0)" d="M722 347C722 358 713 367 702 367L76 367C65 367 56 358 56 347C56 336 65 327 76 327L702 327C713 327 722 336 722 347ZM722 153C722 164 713 173 702 173L76 173C65 173 56 164 56 153C56 142 65 133 76 133L702 133C713 133 722 142 722 153Z" stroke="rgb(0,0,0)" stroke-opacity="1" stroke-width="8" fill="rgb(0,0,0)" fill-opacity="1"></path></g></g><g><g transform="matrix(1,0,0,1,199.550048828125,156.81666259765626)"><path transform="matrix(0.015300000000000001,0,0,-0.015300000000000001,0,0)" d="" stroke="rgb(0,0,0)" stroke-opacity="1" stroke-width="8" fill="rgb(0,0,0)" fill-opacity="1"></path></g></g><g><g transform="matrix(1,0,0,1,204.63330078125,156.96668701171876)"><path transform="matrix(0.015300000000000001,0,0,-0.015300000000000001,0,0)" d="M332 -238C332 -235 330 -232 328 -230C224 -152 155 48 155 208L155 292C155 452 224 652 328 730C330 732 332 735 332 738C332 743 327 748 322 748C320 748 318 747 316 746C206 663 101 463 101 292L101 208C101 37 206 -163 316 -246C318 -247 320 -248 322 -248C327 -248 332 -243 332 -238Z" stroke="rgb(0,0,0)" stroke-opacity="1" stroke-width="8" fill="rgb(0,0,0)" fill-opacity="1"></path></g></g><g><g transform="matrix(1,0,0,1,210.5833740234375,156.81666259765626)"><path transform="matrix(0.015300000000000001,0,0,-0.015300000000000001,0,0)" d="M552 636C552 682 506 705 465 705C431 705 368 687 338 588C332 567 329 557 305 431L236 431C217 431 206 431 206 412C206 400 215 400 234 400L300 400L225 5C207 -92 190 -183 138 -183C134 -183 109 -183 90 -165C136 -162 145 -126 145 -111C145 -88 127 -76 108 -76C82 -76 53 -98 53 -136C53 -181 97 -205 138 -205C193 -205 233 -146 251 -108C283 -45 306 76 307 83L367 400L453 400C473 400 483 400 483 420C483 431 473 431 456 431L373 431C384 489 383 487 394 545C398 566 412 637 418 649C427 668 444 683 465 683C469 683 495 683 514 665C470 661 460 626 460 611C460 588 478 576 497 576C523 576 552 598 552 636Z" stroke="rgb(0,0,0)" stroke-opacity="1" stroke-width="8" fill="rgb(0,0,0)" fill-opacity="1"></path></g></g><g><g><g><g><g transform="matrix(1,0,0,1,218.550048828125,159.66001220703126)"><path transform="matrix(0.01071,0,0,-0.01071,0,0)" d="M419 0L419 31L387 31C297 31 294 42 294 79L294 640C294 664 294 666 271 666C209 602 121 602 89 602L89 571C109 571 168 571 220 597L220 79C220 43 217 31 127 31L95 31L95 0C130 3 217 3 257 3C297 3 384 3 419 0Z" stroke="rgb(0,0,0)" stroke-opacity="1" stroke-width="8" fill="rgb(0,0,0)" fill-opacity="1"></path></g></g></g></g></g><g><g transform="matrix(1,0,0,1,227.88330078125,156.81666259765626)"><path transform="matrix(0.015300000000000001,0,0,-0.015300000000000001,0,0)" d="M356 250C356 333 289 400 206 400C123 400 56 333 56 250C56 167 123 100 206 100C289 100 356 167 356 250ZM316 250C316 189 267 140 206 140C145 140 96 189 96 250C96 311 145 360 206 360C267 360 316 311 316 250Z" stroke="rgb(0,0,0)" stroke-opacity="1" stroke-width="8" fill="rgb(0,0,0)" fill-opacity="1"></path></g></g><g><g transform="matrix(1,0,0,1,237.25,156.81666259765626)"><path transform="matrix(0.015300000000000001,0,0,-0.015300000000000001,0,0)" d="M552 636C552 682 506 705 465 705C431 705 368 687 338 588C332 567 329 557 305 431L236 431C217 431 206 431 206 412C206 400 215 400 234 400L300 400L225 5C207 -92 190 -183 138 -183C134 -183 109 -183 90 -165C136 -162 145 -126 145 -111C145 -88 127 -76 108 -76C82 -76 53 -98 53 -136C53 -181 97 -205 138 -205C193 -205 233 -146 251 -108C283 -45 306 76 307 83L367 400L453 400C473 400 483 400 483 420C483 431 473 431 456 431L373 431C384 489 383 487 394 545C398 566 412 637 418 649C427 668 444 683 465 683C469 683 495 683 514 665C470 661 460 626 460 611C460 588 478 576 497 576C523 576 552 598 552 636Z" stroke="rgb(0,0,0)" stroke-opacity="1" stroke-width="8" fill="rgb(0,0,0)" fill-opacity="1"></path></g></g><g><g><g><g><g transform="matrix(1,0,0,1,245.2166748046875,159.66001220703126)"><path transform="matrix(0.01071,0,0,-0.01071,0,0)" d="M449 174L424 174C419 144 412 100 402 85C395 77 329 77 307 77L127 77L233 180C389 318 449 372 449 472C449 586 359 666 237 666C124 666 50 574 50 485C50 429 100 429 103 429C120 429 155 441 155 482C155 508 137 534 102 534C94 534 92 534 89 533C112 598 166 635 224 635C315 635 358 554 358 472C358 392 308 313 253 251L61 37C50 26 50 24 50 0L421 0Z" stroke="rgb(0,0,0)" stroke-opacity="1" stroke-width="8" fill="rgb(0,0,0)" fill-opacity="1"></path></g></g></g></g></g><g><g transform="matrix(1,0,0,1,251.4833984375,156.96668701171876)"><path transform="matrix(0.015300000000000001,0,0,-0.015300000000000001,0,0)" d="M288 208L288 292C288 463 183 663 73 746C71 747 69 748 67 748C62 748 57 743 57 738C57 735 59 732 61 730C165 652 234 452 234 292L234 208C234 48 165 -152 61 -230C59 -232 57 -235 57 -238C57 -243 62 -248 67 -248C69 -248 71 -247 73 -246C183 -163 288 37 288 208Z" stroke="rgb(0,0,0)" stroke-opacity="1" stroke-width="8" fill="rgb(0,0,0)" fill-opacity="1"></path></g></g><g><g transform="matrix(1,0,0,1,257.433349609375,156.96668701171876)"><path transform="matrix(0.015300000000000001,0,0,-0.015300000000000001,0,0)" d="M332 -238C332 -235 330 -232 328 -230C224 -152 155 48 155 208L155 292C155 452 224 652 328 730C330 732 332 735 332 738C332 743 327 748 322 748C320 748 318 747 316 746C206 663 101 463 101 292L101 208C101 37 206 -163 316 -246C318 -247 320 -248 322 -248C327 -248 332 -243 332 -238Z" stroke="rgb(0,0,0)" stroke-opacity="1" stroke-width="8" fill="rgb(0,0,0)" fill-opacity="1"></path></g></g><g><g transform="matrix(1,0,0,1,263.38330078125,156.81666259765626)"><path transform="matrix(0.015300000000000001,0,0,-0.015300000000000001,0,0)" d="M527 376C527 428 468 442 434 442C376 442 341 389 329 366C304 432 250 442 221 442C117 442 60 313 60 288C60 278 72 278 72 278C80 278 83 280 85 289C119 395 185 420 219 420C238 420 273 411 273 353C273 322 256 255 219 115C203 53 168 11 124 11C118 11 95 11 74 24C99 29 121 50 121 78C121 105 99 113 84 113C54 113 29 87 29 55C29 9 79 -11 123 -11C189 -11 225 59 228 65C240 28 276 -11 336 -11C439 -11 496 118 496 143C496 153 487 153 484 153C475 153 473 149 471 142C438 35 370 11 338 11C299 11 283 43 283 77C283 99 289 121 300 165L334 302C340 328 363 420 433 420C438 420 462 420 483 407C455 402 435 377 435 353C435 337 446 318 473 318C495 318 527 336 527 376Z" stroke="rgb(0,0,0)" stroke-opacity="1" stroke-width="8" fill="rgb(0,0,0)" fill-opacity="1"></path></g></g><g><g transform="matrix(1,0,0,1,272.13330078125,156.81666259765626)"><path transform="matrix(0.015300000000000001,0,0,-0.015300000000000001,0,0)" d="M203 1C203 67 178 106 139 106C106 106 86 81 86 53C86 26 106 0 139 0C151 0 164 4 174 13C177 15 179 16 179 16C179 16 181 15 181 1C181 -73 146 -133 113 -166C102 -177 102 -179 102 -182C102 -189 107 -193 112 -193C123 -193 203 -116 203 1Z" stroke="rgb(0,0,0)" stroke-opacity="1" stroke-width="8" fill="rgb(0,0,0)" fill-opacity="1"></path></g></g><g><g transform="matrix(1,0,0,1,279.449951171875,156.81666259765626)"><path transform="matrix(0.015300000000000001,0,0,-0.015300000000000001,0,0)" d="M490 404C490 422 476 431 461 431C451 431 435 425 426 410C424 405 416 374 412 356L392 276L347 96C343 81 300 11 234 11C183 11 172 55 172 92C172 138 189 200 223 288C239 329 243 340 243 360C243 405 211 442 161 442C66 442 29 297 29 288C29 278 41 278 41 278C51 278 52 280 57 296C84 390 124 420 158 420C166 420 183 420 183 388C183 363 173 337 166 318C126 212 108 155 108 108C108 19 171 -11 230 -11C269 -11 303 6 331 34C318 -18 306 -67 266 -120C240 -154 202 -183 156 -183C142 -183 97 -180 80 -141C96 -141 109 -141 123 -129C133 -120 143 -107 143 -88C143 -57 116 -53 106 -53C83 -53 50 -69 50 -118C50 -168 94 -205 156 -205C259 -205 362 -114 390 -1L486 381C490 395 490 397 490 404Z" stroke="rgb(0,0,0)" stroke-opacity="1" stroke-width="8" fill="rgb(0,0,0)" fill-opacity="1"></path></g></g><g><g transform="matrix(1,0,0,1,286.949951171875,156.81666259765626)"><path transform="matrix(0.015300000000000001,0,0,-0.015300000000000001,0,0)" d="M203 1C203 67 178 106 139 106C106 106 86 81 86 53C86 26 106 0 139 0C151 0 164 4 174 13C177 15 179 16 179 16C179 16 181 15 181 1C181 -73 146 -133 113 -166C102 -177 102 -179 102 -182C102 -189 107 -193 112 -193C123 -193 203 -116 203 1Z" stroke="rgb(0,0,0)" stroke-opacity="1" stroke-width="8" fill="rgb(0,0,0)" fill-opacity="1"></path></g></g><g><g transform="matrix(1,0,0,1,294.2666015625,156.81666259765626)"><path transform="matrix(0.015300000000000001,0,0,-0.015300000000000001,0,0)" d="M455 500C455 566 437 705 335 705C196 705 42 423 42 194C42 100 71 -11 162 -11C303 -11 455 276 455 500ZM389 562C389 513 381 462 357 363L148 363C165 427 185 507 225 578C252 627 289 683 334 683C383 683 389 619 389 562ZM348 331C337 285 316 200 278 128C243 60 205 11 162 11C129 11 108 40 108 133C108 175 114 233 140 331Z" stroke="rgb(0,0,0)" stroke-opacity="1" stroke-width="8" fill="rgb(0,0,0)" fill-opacity="1"></path></g></g><g><g transform="matrix(1,0,0,1,301.449951171875,156.96668701171876)"><path transform="matrix(0.015300000000000001,0,0,-0.015300000000000001,0,0)" d="M288 208L288 292C288 463 183 663 73 746C71 747 69 748 67 748C62 748 57 743 57 738C57 735 59 732 61 730C165 652 234 452 234 292L234 208C234 48 165 -152 61 -230C59 -232 57 -235 57 -238C57 -243 62 -248 67 -248C69 -248 71 -247 73 -246C183 -163 288 37 288 208Z" stroke="rgb(0,0,0)" stroke-opacity="1" stroke-width="8" fill="rgb(0,0,0)" fill-opacity="1"></path></g></g></g></g></svg>
</svg>
